<?xml version="1.0" encoding="UTF-8"?>
<svg xmlns="http://www.w3.org/2000/svg" width="1080" height="640" viewBox="0 0 1080 640">
<rect width="100%" height="100%" fill="#ffffff" />
<text x="36" y="40" font-size="24" font-family="Arial, Helvetica, sans-serif" fill="#111827">Ablation Score</text>
<text x="36" y="62" font-size="12" font-family="Arial, Helvetica, sans-serif" fill="#6b7280">chart=grouped-bar generated_from_csv=true</text>
<line x1="84.0" y1="528.0" x2="1052.0" y2="528.0" stroke="#e5e7eb" stroke-width="1.0" />
<text x="74.0" y="532.0" font-size="11" font-family="Arial, Helvetica, sans-serif" fill="#6b7280" text-anchor="end">-2.834</text>
<line x1="84.0" y1="438.4" x2="1052.0" y2="438.4" stroke="#e5e7eb" stroke-width="1.0" />
<text x="74.0" y="442.4" font-size="11" font-family="Arial, Helvetica, sans-serif" fill="#6b7280" text-anchor="end">-2.251</text>
<line x1="84.0" y1="348.8" x2="1052.0" y2="348.8" stroke="#e5e7eb" stroke-width="1.0" />
<text x="74.0" y="352.8" font-size="11" font-family="Arial, Helvetica, sans-serif" fill="#6b7280" text-anchor="end">-1.668</text>
<line x1="84.0" y1="259.2" x2="1052.0" y2="259.2" stroke="#e5e7eb" stroke-width="1.0" />
<text x="74.0" y="263.2" font-size="11" font-family="Arial, Helvetica, sans-serif" fill="#6b7280" text-anchor="end">-1.086</text>
<line x1="84.0" y1="169.6" x2="1052.0" y2="169.6" stroke="#e5e7eb" stroke-width="1.0" />
<text x="74.0" y="173.6" font-size="11" font-family="Arial, Helvetica, sans-serif" fill="#6b7280" text-anchor="end">-0.5026</text>
<line x1="84.0" y1="80.0" x2="1052.0" y2="80.0" stroke="#e5e7eb" stroke-width="1.0" />
<text x="74.0" y="84.0" font-size="11" font-family="Arial, Helvetica, sans-serif" fill="#6b7280" text-anchor="end">0.0804</text>
<line x1="84.0" y1="92.4" x2="1052.0" y2="92.4" stroke="#111827" stroke-width="1.2" />
<text x="114.2" y="592.0" font-size="12" font-family="Arial, Helvetica, sans-serif" fill="#111827" text-anchor="middle">baseline</text>
<rect x="92.5" y="92.4" width="10.0" height="31.0" rx="4" fill="#2563eb" />
<rect x="104.5" y="92.4" width="10.0" height="130.9" rx="4" fill="#f97316" />
<rect x="116.5" y="92.4" width="10.0" height="92.5" rx="4" fill="#16a34a" />
<text x="174.8" y="592.0" font-size="12" font-family="Arial, Helvetica, sans-serif" fill="#111827" text-anchor="middle">safe_fallback_only</text>
<rect x="189.0" y="92.4" width="10.0" height="31.0" rx="4" fill="#dc2626" />
<text x="235.2" y="592.0" font-size="12" font-family="Arial, Helvetica, sans-serif" fill="#111827" text-anchor="middle">llm_only_one_shot</text>
<rect x="261.5" y="92.4" width="10.0" height="115.6" rx="4" fill="#7c3aed" />
<text x="295.8" y="592.0" font-size="12" font-family="Arial, Helvetica, sans-serif" fill="#111827" text-anchor="middle">without_reflection</text>
<rect x="334.0" y="92.4" width="10.0" height="107.9" rx="4" fill="#0891b2" />
<text x="356.2" y="592.0" font-size="12" font-family="Arial, Helvetica, sans-serif" fill="#111827" text-anchor="middle">without_evolution</text>
<rect x="406.5" y="92.4" width="10.0" height="107.8" rx="4" fill="#ca8a04" />
<text x="416.8" y="592.0" font-size="12" font-family="Arial, Helvetica, sans-serif" fill="#111827" text-anchor="middle">prompt_variant</text>
<rect x="455.0" y="92.4" width="10.0" height="107.9" rx="4" fill="#0891b2" />
<text x="477.2" y="592.0" font-size="12" font-family="Arial, Helvetica, sans-serif" fill="#111827" text-anchor="middle">llm_model_variant</text>
<rect x="527.5" y="92.4" width="10.0" height="107.9" rx="4" fill="#ca8a04" />
<text x="537.8" y="592.0" font-size="12" font-family="Arial, Helvetica, sans-serif" fill="#111827" text-anchor="middle">random_search_same_budget</text>
<rect x="600.0" y="92.4" width="10.0" height="61.8" rx="4" fill="#db2777" />
<text x="598.2" y="592.0" font-size="12" font-family="Arial, Helvetica, sans-serif" fill="#111827" text-anchor="middle">bo_same_budget</text>
<rect x="672.5" y="92.4" width="10.0" height="61.8" rx="4" fill="#2563eb" />
<text x="658.8" y="592.0" font-size="12" font-family="Arial, Helvetica, sans-serif" fill="#111827" text-anchor="middle">bo_same_budget_deep</text>
<rect x="745.0" y="92.4" width="10.0" height="61.8" rx="4" fill="#f97316" />
<text x="719.2" y="592.0" font-size="12" font-family="Arial, Helvetica, sans-serif" fill="#111827" text-anchor="middle">evolution_without_llm</text>
<rect x="817.5" y="92.4" width="10.0" height="130.9" rx="4" fill="#16a34a" />
<text x="779.8" y="592.0" font-size="12" font-family="Arial, Helvetica, sans-serif" fill="#111827" text-anchor="middle">learned_controller_high_budget</text>
<rect x="890.0" y="92.4" width="10.0" height="392.3" rx="4" fill="#dc2626" />
<text x="840.2" y="592.0" font-size="12" font-family="Arial, Helvetica, sans-serif" fill="#111827" text-anchor="middle">learned_controller_paper_scale</text>
<rect x="962.5" y="92.4" width="10.0" height="392.3" rx="4" fill="#7c3aed" />
<text x="900.8" y="592.0" font-size="12" font-family="Arial, Helvetica, sans-serif" fill="#111827" text-anchor="middle">temperature_0p3</text>
<rect x="1035.0" y="92.4" width="10.0" height="130.9" rx="4" fill="#0891b2" />
<text x="961.2" y="592.0" font-size="12" font-family="Arial, Helvetica, sans-serif" fill="#111827" text-anchor="middle">temperature_0p7</text>
<rect x="1107.5" y="92.4" width="10.0" height="61.8" rx="4" fill="#ca8a04" />
<text x="1021.8" y="592.0" font-size="12" font-family="Arial, Helvetica, sans-serif" fill="#111827" text-anchor="middle">without_verifier</text>
<rect x="1180.0" y="92.4" width="10.0" height="54.1" rx="4" fill="#db2777" />
<rect x="84" y="608" width="12" height="12" rx="2" fill="#2563eb" />
<text x="102.0" y="618.0" font-size="12" font-family="Arial, Helvetica, sans-serif" fill="#374151" text-anchor="start">vanilla</text>
<rect x="232" y="608" width="12" height="12" rx="2" fill="#f97316" />
<text x="250.0" y="618.0" font-size="12" font-family="Arial, Helvetica, sans-serif" fill="#374151" text-anchor="start">adaptive</text>
<rect x="380" y="608" width="12" height="12" rx="2" fill="#16a34a" />
<text x="398.0" y="618.0" font-size="12" font-family="Arial, Helvetica, sans-serif" fill="#374151" text-anchor="start">conservative</text>
<rect x="528" y="608" width="12" height="12" rx="2" fill="#dc2626" />
<text x="546.0" y="618.0" font-size="12" font-family="Arial, Helvetica, sans-serif" fill="#374151" text-anchor="start">safe_fallback_only</text>
<rect x="676" y="608" width="12" height="12" rx="2" fill="#7c3aed" />
<text x="694.0" y="618.0" font-size="12" font-family="Arial, Helvetica, sans-serif" fill="#374151" text-anchor="start">llm_one_shot</text>
<rect x="824" y="608" width="12" height="12" rx="2" fill="#0891b2" />
<text x="842.0" y="618.0" font-size="12" font-family="Arial, Helvetica, sans-serif" fill="#374151" text-anchor="start">prompt_variant</text>
<rect x="84" y="626" width="12" height="12" rx="2" fill="#ca8a04" />
<text x="102.0" y="636.0" font-size="12" font-family="Arial, Helvetica, sans-serif" fill="#374151" text-anchor="start">model_variant</text>
<rect x="232" y="626" width="12" height="12" rx="2" fill="#db2777" />
<text x="250.0" y="636.0" font-size="12" font-family="Arial, Helvetica, sans-serif" fill="#374151" text-anchor="start">grid_candidate_1</text>
<rect x="380" y="626" width="12" height="12" rx="2" fill="#2563eb" />
<text x="398.0" y="636.0" font-size="12" font-family="Arial, Helvetica, sans-serif" fill="#374151" text-anchor="start">bayes_proxy_ablation</text>
<rect x="528" y="626" width="12" height="12" rx="2" fill="#f97316" />
<text x="546.0" y="636.0" font-size="12" font-family="Arial, Helvetica, sans-serif" fill="#374151" text-anchor="start">bayes_proxy_ablation_deep</text>
<rect x="676" y="626" width="12" height="12" rx="2" fill="#16a34a" />
<text x="694.0" y="636.0" font-size="12" font-family="Arial, Helvetica, sans-serif" fill="#374151" text-anchor="start">evolution_no_llm_ablation</text>
<rect x="824" y="626" width="12" height="12" rx="2" fill="#dc2626" />
<text x="842.0" y="636.0" font-size="12" font-family="Arial, Helvetica, sans-serif" fill="#374151" text-anchor="start">learned_controller_high_budget</text>
<rect x="84" y="644" width="12" height="12" rx="2" fill="#7c3aed" />
<text x="102.0" y="654.0" font-size="12" font-family="Arial, Helvetica, sans-serif" fill="#374151" text-anchor="start">learned_controller_paper_scale</text>
<rect x="232" y="644" width="12" height="12" rx="2" fill="#0891b2" />
<text x="250.0" y="654.0" font-size="12" font-family="Arial, Helvetica, sans-serif" fill="#374151" text-anchor="start">temperature_0p3_variant</text>
<rect x="380" y="644" width="12" height="12" rx="2" fill="#ca8a04" />
<text x="398.0" y="654.0" font-size="12" font-family="Arial, Helvetica, sans-serif" fill="#374151" text-anchor="start">temperature_0p7_variant</text>
<rect x="528" y="644" width="12" height="12" rx="2" fill="#db2777" />
<text x="546.0" y="654.0" font-size="12" font-family="Arial, Helvetica, sans-serif" fill="#374151" text-anchor="start">unsafe_no_verifier</text>
<text x="84" y="62" font-size="13" font-family="Arial, Helvetica, sans-serif" fill="#6b7280">metric=score items=16</text>
<text x="22.0" y="90.0" font-size="12" font-family="Arial, Helvetica, sans-serif" fill="#374151" text-anchor="start" transform="rotate(-90 22.0 90.0)">score</text>
</svg>