<?xml version="1.0" encoding="UTF-8"?>
<svg xmlns="http://www.w3.org/2000/svg" width="1080" height="640" viewBox="0 0 1080 640">
<rect width="100%" height="100%" fill="#ffffff" />
<text x="36" y="40" font-size="24" font-family="Arial, Helvetica, sans-serif" fill="#111827">Baseline Score</text>
<text x="36" y="62" font-size="12" font-family="Arial, Helvetica, sans-serif" fill="#6b7280">chart=bar generated_from_csv=true</text>
<line x1="84.0" y1="528.0" x2="1052.0" y2="528.0" stroke="#e5e7eb" stroke-width="1.0" />
<text x="74.0" y="532.0" font-size="11" font-family="Arial, Helvetica, sans-serif" fill="#6b7280" text-anchor="end">-3.441</text>
<line x1="84.0" y1="438.4" x2="1052.0" y2="438.4" stroke="#e5e7eb" stroke-width="1.0" />
<text x="74.0" y="442.4" font-size="11" font-family="Arial, Helvetica, sans-serif" fill="#6b7280" text-anchor="end">-2.753</text>
<line x1="84.0" y1="348.8" x2="1052.0" y2="348.8" stroke="#e5e7eb" stroke-width="1.0" />
<text x="74.0" y="352.8" font-size="11" font-family="Arial, Helvetica, sans-serif" fill="#6b7280" text-anchor="end">-2.065</text>
<line x1="84.0" y1="259.2" x2="1052.0" y2="259.2" stroke="#e5e7eb" stroke-width="1.0" />
<text x="74.0" y="263.2" font-size="11" font-family="Arial, Helvetica, sans-serif" fill="#6b7280" text-anchor="end">-1.376</text>
<line x1="84.0" y1="169.6" x2="1052.0" y2="169.6" stroke="#e5e7eb" stroke-width="1.0" />
<text x="74.0" y="173.6" font-size="11" font-family="Arial, Helvetica, sans-serif" fill="#6b7280" text-anchor="end">-0.6882</text>
<line x1="84.0" y1="80.0" x2="1052.0" y2="80.0" stroke="#e5e7eb" stroke-width="1.0" />
<text x="74.0" y="84.0" font-size="11" font-family="Arial, Helvetica, sans-serif" fill="#6b7280" text-anchor="end">0.0000</text>
<line x1="84.0" y1="80.0" x2="1052.0" y2="80.0" stroke="#111827" stroke-width="1.2" />
<rect x="84.0" y="80.0" width="28.7" height="69.1" rx="4" fill="#2563eb"><title>grid_candidate_1/bo_seed_grid_1 | score=-0.5305 | origin=grid_search</title></rect>
<text x="98.3" y="578.0" font-size="11" font-family="Arial, Helvetica, sans-serif" fill="#111827" text-anchor="middle" transform="rotate(-28 98.3 578.0)">grid_candidate_1/bo_seed_grid_1</text>
<text x="98.3" y="165.1" font-size="11" font-family="Arial, Helvetica, sans-serif" fill="#374151" text-anchor="middle">-0.5305</text>
<rect x="126.7" y="80.0" width="28.7" height="285.9" rx="4" fill="#2563eb"><title>grid_candidate_2/bo_seed_grid_2 | score=-2.196 | origin=grid_search</title></rect>
<text x="141.0" y="578.0" font-size="11" font-family="Arial, Helvetica, sans-serif" fill="#111827" text-anchor="middle" transform="rotate(-28 141.0 578.0)">grid_candidate_2/bo_seed_grid_2</text>
<text x="141.0" y="381.9" font-size="11" font-family="Arial, Helvetica, sans-serif" fill="#374151" text-anchor="middle">-2.196</text>
<rect x="169.4" y="80.0" width="28.7" height="407.4" rx="4" fill="#16a34a"><title>PDHG/bayes_iter_14 | score=-3.129 | origin=bayesian_optimisation</title></rect>
<text x="183.7" y="578.0" font-size="11" font-family="Arial, Helvetica, sans-serif" fill="#111827" text-anchor="middle" transform="rotate(-28 183.7 578.0)">PDHG/bayes_iter_14</text>
<text x="183.7" y="503.4" font-size="11" font-family="Arial, Helvetica, sans-serif" fill="#374151" text-anchor="middle">-3.129</text>
<rect x="212.1" y="80.0" width="28.7" height="407.4" rx="4" fill="#16a34a"><title>PDHG/bayes_iter_01 | score=-3.129 | origin=bayesian_optimisation</title></rect>
<text x="226.4" y="578.0" font-size="11" font-family="Arial, Helvetica, sans-serif" fill="#111827" text-anchor="middle" transform="rotate(-28 226.4 578.0)">PDHG/bayes_iter_01</text>
<text x="226.4" y="503.4" font-size="11" font-family="Arial, Helvetica, sans-serif" fill="#374151" text-anchor="middle">-3.129</text>
<rect x="254.8" y="80.0" width="28.7" height="407.4" rx="4" fill="#16a34a"><title>PDHG/bayes_iter_02 | score=-3.129 | origin=bayesian_optimisation</title></rect>
<text x="269.1" y="578.0" font-size="11" font-family="Arial, Helvetica, sans-serif" fill="#111827" text-anchor="middle" transform="rotate(-28 269.1 578.0)">PDHG/bayes_iter_02</text>
<text x="269.1" y="503.4" font-size="11" font-family="Arial, Helvetica, sans-serif" fill="#374151" text-anchor="middle">-3.129</text>
<rect x="297.5" y="80.0" width="28.7" height="407.4" rx="4" fill="#16a34a"><title>PDHG/bayes_iter_18 | score=-3.129 | origin=bayesian_optimisation</title></rect>
<text x="311.8" y="578.0" font-size="11" font-family="Arial, Helvetica, sans-serif" fill="#111827" text-anchor="middle" transform="rotate(-28 311.8 578.0)">PDHG/bayes_iter_18</text>
<text x="311.8" y="503.4" font-size="11" font-family="Arial, Helvetica, sans-serif" fill="#374151" text-anchor="middle">-3.129</text>
<rect x="340.2" y="80.0" width="28.7" height="407.4" rx="4" fill="#16a34a"><title>PDHG/bayes_iter_15 | score=-3.129 | origin=bayesian_optimisation</title></rect>
<text x="354.5" y="578.0" font-size="11" font-family="Arial, Helvetica, sans-serif" fill="#111827" text-anchor="middle" transform="rotate(-28 354.5 578.0)">PDHG/bayes_iter_15</text>
<text x="354.5" y="503.4" font-size="11" font-family="Arial, Helvetica, sans-serif" fill="#374151" text-anchor="middle">-3.129</text>
<rect x="382.9" y="80.0" width="28.7" height="407.4" rx="4" fill="#16a34a"><title>PDHG/bayes_iter_17 | score=-3.129 | origin=bayesian_optimisation</title></rect>
<text x="397.2" y="578.0" font-size="11" font-family="Arial, Helvetica, sans-serif" fill="#111827" text-anchor="middle" transform="rotate(-28 397.2 578.0)">PDHG/bayes_iter_17</text>
<text x="397.2" y="503.4" font-size="11" font-family="Arial, Helvetica, sans-serif" fill="#374151" text-anchor="middle">-3.129</text>
<rect x="425.6" y="80.0" width="28.7" height="407.4" rx="4" fill="#16a34a"><title>PDHG/bayes_iter_19 | score=-3.129 | origin=bayesian_optimisation</title></rect>
<text x="439.9" y="578.0" font-size="11" font-family="Arial, Helvetica, sans-serif" fill="#111827" text-anchor="middle" transform="rotate(-28 439.9 578.0)">PDHG/bayes_iter_19</text>
<text x="439.9" y="503.4" font-size="11" font-family="Arial, Helvetica, sans-serif" fill="#374151" text-anchor="middle">-3.129</text>
<rect x="468.3" y="80.0" width="28.7" height="407.4" rx="4" fill="#16a34a"><title>PDHG/bayes_iter_04 | score=-3.129 | origin=bayesian_optimisation</title></rect>
<text x="482.6" y="578.0" font-size="11" font-family="Arial, Helvetica, sans-serif" fill="#111827" text-anchor="middle" transform="rotate(-28 482.6 578.0)">PDHG/bayes_iter_04</text>
<text x="482.6" y="503.4" font-size="11" font-family="Arial, Helvetica, sans-serif" fill="#374151" text-anchor="middle">-3.129</text>
<rect x="511.0" y="80.0" width="28.7" height="407.4" rx="4" fill="#16a34a"><title>PDHG/bayes_iter_08 | score=-3.129 | origin=bayesian_optimisation</title></rect>
<text x="525.3" y="578.0" font-size="11" font-family="Arial, Helvetica, sans-serif" fill="#111827" text-anchor="middle" transform="rotate(-28 525.3 578.0)">PDHG/bayes_iter_08</text>
<text x="525.3" y="503.4" font-size="11" font-family="Arial, Helvetica, sans-serif" fill="#374151" text-anchor="middle">-3.129</text>
<rect x="553.7" y="80.0" width="28.7" height="407.4" rx="4" fill="#16a34a"><title>PDHG/bayes_iter_12 | score=-3.129 | origin=bayesian_optimisation</title></rect>
<text x="568.0" y="578.0" font-size="11" font-family="Arial, Helvetica, sans-serif" fill="#111827" text-anchor="middle" transform="rotate(-28 568.0 578.0)">PDHG/bayes_iter_12</text>
<text x="568.0" y="503.4" font-size="11" font-family="Arial, Helvetica, sans-serif" fill="#374151" text-anchor="middle">-3.129</text>
<rect x="596.3" y="80.0" width="28.7" height="407.4" rx="4" fill="#16a34a"><title>PDHG/bayes_iter_16 | score=-3.129 | origin=bayesian_optimisation</title></rect>
<text x="610.7" y="578.0" font-size="11" font-family="Arial, Helvetica, sans-serif" fill="#111827" text-anchor="middle" transform="rotate(-28 610.7 578.0)">PDHG/bayes_iter_16</text>
<text x="610.7" y="503.4" font-size="11" font-family="Arial, Helvetica, sans-serif" fill="#374151" text-anchor="middle">-3.129</text>
<rect x="639.0" y="80.0" width="28.7" height="407.4" rx="4" fill="#16a34a"><title>PDHG/bayes_iter_07 | score=-3.129 | origin=bayesian_optimisation</title></rect>
<text x="653.4" y="578.0" font-size="11" font-family="Arial, Helvetica, sans-serif" fill="#111827" text-anchor="middle" transform="rotate(-28 653.4 578.0)">PDHG/bayes_iter_07</text>
<text x="653.4" y="503.4" font-size="11" font-family="Arial, Helvetica, sans-serif" fill="#374151" text-anchor="middle">-3.129</text>
<rect x="681.7" y="80.0" width="28.7" height="407.4" rx="4" fill="#16a34a"><title>PDHG/bayes_iter_11 | score=-3.129 | origin=bayesian_optimisation</title></rect>
<text x="696.1" y="578.0" font-size="11" font-family="Arial, Helvetica, sans-serif" fill="#111827" text-anchor="middle" transform="rotate(-28 696.1 578.0)">PDHG/bayes_iter_11</text>
<text x="696.1" y="503.4" font-size="11" font-family="Arial, Helvetica, sans-serif" fill="#374151" text-anchor="middle">-3.129</text>
<rect x="724.4" y="80.0" width="28.7" height="407.4" rx="4" fill="#16a34a"><title>PDHG/bayes_iter_13 | score=-3.129 | origin=bayesian_optimisation</title></rect>
<text x="738.8" y="578.0" font-size="11" font-family="Arial, Helvetica, sans-serif" fill="#111827" text-anchor="middle" transform="rotate(-28 738.8 578.0)">PDHG/bayes_iter_13</text>
<text x="738.8" y="503.4" font-size="11" font-family="Arial, Helvetica, sans-serif" fill="#374151" text-anchor="middle">-3.129</text>
<rect x="767.1" y="80.0" width="28.7" height="407.4" rx="4" fill="#16a34a"><title>PDHG/bayes_iter_05 | score=-3.129 | origin=bayesian_optimisation</title></rect>
<text x="781.5" y="578.0" font-size="11" font-family="Arial, Helvetica, sans-serif" fill="#111827" text-anchor="middle" transform="rotate(-28 781.5 578.0)">PDHG/bayes_iter_05</text>
<text x="781.5" y="503.4" font-size="11" font-family="Arial, Helvetica, sans-serif" fill="#374151" text-anchor="middle">-3.129</text>
<rect x="809.8" y="80.0" width="28.7" height="407.4" rx="4" fill="#16a34a"><title>PDHG/bayes_iter_06 | score=-3.129 | origin=bayesian_optimisation</title></rect>
<text x="824.2" y="578.0" font-size="11" font-family="Arial, Helvetica, sans-serif" fill="#111827" text-anchor="middle" transform="rotate(-28 824.2 578.0)">PDHG/bayes_iter_06</text>
<text x="824.2" y="503.4" font-size="11" font-family="Arial, Helvetica, sans-serif" fill="#374151" text-anchor="middle">-3.129</text>
<rect x="852.5" y="80.0" width="28.7" height="407.4" rx="4" fill="#16a34a"><title>PDHG/bayes_iter_20 | score=-3.129 | origin=bayesian_optimisation</title></rect>
<text x="866.9" y="578.0" font-size="11" font-family="Arial, Helvetica, sans-serif" fill="#111827" text-anchor="middle" transform="rotate(-28 866.9 578.0)">PDHG/bayes_iter_20</text>
<text x="866.9" y="503.4" font-size="11" font-family="Arial, Helvetica, sans-serif" fill="#374151" text-anchor="middle">-3.129</text>
<rect x="895.2" y="80.0" width="28.7" height="407.4" rx="4" fill="#16a34a"><title>PDHG/bayes_iter_09 | score=-3.129 | origin=bayesian_optimisation</title></rect>
<text x="909.6" y="578.0" font-size="11" font-family="Arial, Helvetica, sans-serif" fill="#111827" text-anchor="middle" transform="rotate(-28 909.6 578.0)">PDHG/bayes_iter_09</text>
<text x="909.6" y="503.4" font-size="11" font-family="Arial, Helvetica, sans-serif" fill="#374151" text-anchor="middle">-3.129</text>
<rect x="937.9" y="80.0" width="28.7" height="407.4" rx="4" fill="#16a34a"><title>PDHG/bayes_iter_03 | score=-3.129 | origin=bayesian_optimisation</title></rect>
<text x="952.3" y="578.0" font-size="11" font-family="Arial, Helvetica, sans-serif" fill="#111827" text-anchor="middle" transform="rotate(-28 952.3 578.0)">PDHG/bayes_iter_03</text>
<text x="952.3" y="503.4" font-size="11" font-family="Arial, Helvetica, sans-serif" fill="#374151" text-anchor="middle">-3.129</text>
<rect x="980.6" y="80.0" width="28.7" height="407.4" rx="4" fill="#16a34a"><title>PDHG/bayes_iter_10 | score=-3.129 | origin=bayesian_optimisation</title></rect>
<text x="995.0" y="578.0" font-size="11" font-family="Arial, Helvetica, sans-serif" fill="#111827" text-anchor="middle" transform="rotate(-28 995.0 578.0)">PDHG/bayes_iter_10</text>
<text x="995.0" y="503.4" font-size="11" font-family="Arial, Helvetica, sans-serif" fill="#374151" text-anchor="middle">-3.129</text>
<rect x="1023.3" y="80.0" width="28.7" height="407.4" rx="4" fill="#ca8a04"><title>bo_seed_adaptive | score=-3.129 | origin=baseline</title></rect>
<text x="1037.7" y="578.0" font-size="11" font-family="Arial, Helvetica, sans-serif" fill="#111827" text-anchor="middle" transform="rotate(-28 1037.7 578.0)">bo_seed_adaptive</text>
<text x="1037.7" y="503.4" font-size="11" font-family="Arial, Helvetica, sans-serif" fill="#374151" text-anchor="middle">-3.129</text>
<rect x="84" y="608" width="12" height="12" rx="2" fill="#2563eb" />
<text x="102.0" y="618.0" font-size="12" font-family="Arial, Helvetica, sans-serif" fill="#374151" text-anchor="start">grid_search</text>
<rect x="232" y="608" width="12" height="12" rx="2" fill="#16a34a" />
<text x="250.0" y="618.0" font-size="12" font-family="Arial, Helvetica, sans-serif" fill="#374151" text-anchor="start">bayesian_optimisation</text>
<rect x="380" y="608" width="12" height="12" rx="2" fill="#ca8a04" />
<text x="398.0" y="618.0" font-size="12" font-family="Arial, Helvetica, sans-serif" fill="#374151" text-anchor="start">baseline</text>
<text x="84" y="62" font-size="13" font-family="Arial, Helvetica, sans-serif" fill="#6b7280">metric=score items=23</text>
<text x="22.0" y="90.0" font-size="12" font-family="Arial, Helvetica, sans-serif" fill="#374151" text-anchor="start" transform="rotate(-90 22.0 90.0)">score</text>
</svg>