<?xml version="1.0" encoding="UTF-8"?>
<svg xmlns="http://www.w3.org/2000/svg" width="1080" height="640" viewBox="0 0 1080 640">
<rect width="100%" height="100%" fill="#ffffff" />
<text x="36" y="40" font-size="24" font-family="Arial, Helvetica, sans-serif" fill="#111827">Baseline Score</text>
<text x="36" y="62" font-size="12" font-family="Arial, Helvetica, sans-serif" fill="#6b7280">chart=bar generated_from_csv=true</text>
<line x1="84.0" y1="528.0" x2="1052.0" y2="528.0" stroke="#e5e7eb" stroke-width="1.0" />
<text x="74.0" y="532.0" font-size="11" font-family="Arial, Helvetica, sans-serif" fill="#6b7280" text-anchor="end">-1.480</text>
<line x1="84.0" y1="438.4" x2="1052.0" y2="438.4" stroke="#e5e7eb" stroke-width="1.0" />
<text x="74.0" y="442.4" font-size="11" font-family="Arial, Helvetica, sans-serif" fill="#6b7280" text-anchor="end">-1.184</text>
<line x1="84.0" y1="348.8" x2="1052.0" y2="348.8" stroke="#e5e7eb" stroke-width="1.0" />
<text x="74.0" y="352.8" font-size="11" font-family="Arial, Helvetica, sans-serif" fill="#6b7280" text-anchor="end">-0.8880</text>
<line x1="84.0" y1="259.2" x2="1052.0" y2="259.2" stroke="#e5e7eb" stroke-width="1.0" />
<text x="74.0" y="263.2" font-size="11" font-family="Arial, Helvetica, sans-serif" fill="#6b7280" text-anchor="end">-0.5920</text>
<line x1="84.0" y1="169.6" x2="1052.0" y2="169.6" stroke="#e5e7eb" stroke-width="1.0" />
<text x="74.0" y="173.6" font-size="11" font-family="Arial, Helvetica, sans-serif" fill="#6b7280" text-anchor="end">-0.2960</text>
<line x1="84.0" y1="80.0" x2="1052.0" y2="80.0" stroke="#e5e7eb" stroke-width="1.0" />
<text x="74.0" y="84.0" font-size="11" font-family="Arial, Helvetica, sans-serif" fill="#6b7280" text-anchor="end">0.0000</text>
<line x1="84.0" y1="80.0" x2="1052.0" y2="80.0" stroke="#111827" stroke-width="1.2" />
<rect x="281.0" y="80.0" width="84.0" height="226.4" rx="4" fill="#2563eb"><title>DRS/vanilla | score=-0.7478 | origin=baseline</title></rect>
<text x="323.0" y="578.0" font-size="11" font-family="Arial, Helvetica, sans-serif" fill="#111827" text-anchor="middle" transform="rotate(-28 323.0 578.0)">DRS/vanilla</text>
<text x="323.0" y="322.4" font-size="11" font-family="Arial, Helvetica, sans-serif" fill="#374151" text-anchor="middle">-0.7478</text>
<rect x="379.0" y="80.0" width="84.0" height="226.4" rx="4" fill="#2563eb"><title>DRS/safe_fallback_only | score=-0.7479 | origin=baseline</title></rect>
<text x="421.0" y="578.0" font-size="11" font-family="Arial, Helvetica, sans-serif" fill="#111827" text-anchor="middle" transform="rotate(-28 421.0 578.0)">DRS/safe_fallback_only</text>
<text x="421.0" y="322.4" font-size="11" font-family="Arial, Helvetica, sans-serif" fill="#374151" text-anchor="middle">-0.7479</text>
<rect x="477.0" y="80.0" width="84.0" height="291.1" rx="4" fill="#2563eb"><title>DRS/conservative | score=-0.9615 | origin=baseline</title></rect>
<text x="519.0" y="578.0" font-size="11" font-family="Arial, Helvetica, sans-serif" fill="#111827" text-anchor="middle" transform="rotate(-28 519.0 578.0)">DRS/conservative</text>
<text x="519.0" y="387.1" font-size="11" font-family="Arial, Helvetica, sans-serif" fill="#374151" text-anchor="middle">-0.9615</text>
<rect x="575.0" y="80.0" width="84.0" height="394.3" rx="4" fill="#2563eb"><title>DRS/adaptive | score=-1.303 | origin=baseline</title></rect>
<text x="617.0" y="578.0" font-size="11" font-family="Arial, Helvetica, sans-serif" fill="#111827" text-anchor="middle" transform="rotate(-28 617.0 578.0)">DRS/adaptive</text>
<text x="617.0" y="490.3" font-size="11" font-family="Arial, Helvetica, sans-serif" fill="#374151" text-anchor="middle">-1.303</text>
<rect x="673.0" y="80.0" width="84.0" height="394.3" rx="4" fill="#2563eb"><title>DRS/learned_controller | score=-1.303 | origin=baseline</title></rect>
<text x="715.0" y="578.0" font-size="11" font-family="Arial, Helvetica, sans-serif" fill="#111827" text-anchor="middle" transform="rotate(-28 715.0 578.0)">DRS/learned_controller</text>
<text x="715.0" y="490.3" font-size="11" font-family="Arial, Helvetica, sans-serif" fill="#374151" text-anchor="middle">-1.303</text>
<rect x="771.0" y="80.0" width="84.0" height="424.3" rx="4" fill="#2563eb"><title>DRS/llm_one_shot | score=-1.401 | origin=baseline</title></rect>
<text x="813.0" y="578.0" font-size="11" font-family="Arial, Helvetica, sans-serif" fill="#111827" text-anchor="middle" transform="rotate(-28 813.0 578.0)">DRS/llm_one_shot</text>
<text x="813.0" y="520.3" font-size="11" font-family="Arial, Helvetica, sans-serif" fill="#374151" text-anchor="middle">-1.401</text>
<rect x="84" y="608" width="12" height="12" rx="2" fill="#2563eb" />
<text x="102.0" y="618.0" font-size="12" font-family="Arial, Helvetica, sans-serif" fill="#374151" text-anchor="start">baseline</text>
<text x="84" y="62" font-size="13" font-family="Arial, Helvetica, sans-serif" fill="#6b7280">metric=score items=6</text>
<text x="22.0" y="90.0" font-size="12" font-family="Arial, Helvetica, sans-serif" fill="#374151" text-anchor="start" transform="rotate(-90 22.0 90.0)">score</text>
</svg>