<?xml version="1.0" encoding="UTF-8"?>
<svg xmlns="http://www.w3.org/2000/svg" width="1080" height="640" viewBox="0 0 1080 640">
<rect width="100%" height="100%" fill="#ffffff" />
<text x="36" y="40" font-size="24" font-family="Arial, Helvetica, sans-serif" fill="#111827">Feature Coverage</text>
<text x="36" y="62" font-size="12" font-family="Arial, Helvetica, sans-serif" fill="#6b7280">chart=bar generated_from_csv=true</text>
<line x1="84.0" y1="528.0" x2="1052.0" y2="528.0" stroke="#e5e7eb" stroke-width="1.0" />
<text x="74.0" y="532.0" font-size="11" font-family="Arial, Helvetica, sans-serif" fill="#6b7280" text-anchor="end">-0.0600</text>
<line x1="84.0" y1="438.4" x2="1052.0" y2="438.4" stroke="#e5e7eb" stroke-width="1.0" />
<text x="74.0" y="442.4" font-size="11" font-family="Arial, Helvetica, sans-serif" fill="#6b7280" text-anchor="end">0.0640</text>
<line x1="84.0" y1="348.8" x2="1052.0" y2="348.8" stroke="#e5e7eb" stroke-width="1.0" />
<text x="74.0" y="352.8" font-size="11" font-family="Arial, Helvetica, sans-serif" fill="#6b7280" text-anchor="end">0.1880</text>
<line x1="84.0" y1="259.2" x2="1052.0" y2="259.2" stroke="#e5e7eb" stroke-width="1.0" />
<text x="74.0" y="263.2" font-size="11" font-family="Arial, Helvetica, sans-serif" fill="#6b7280" text-anchor="end">0.3120</text>
<line x1="84.0" y1="169.6" x2="1052.0" y2="169.6" stroke="#e5e7eb" stroke-width="1.0" />
<text x="74.0" y="173.6" font-size="11" font-family="Arial, Helvetica, sans-serif" fill="#6b7280" text-anchor="end">0.4360</text>
<line x1="84.0" y1="80.0" x2="1052.0" y2="80.0" stroke="#e5e7eb" stroke-width="1.0" />
<text x="74.0" y="84.0" font-size="11" font-family="Arial, Helvetica, sans-serif" fill="#6b7280" text-anchor="end">0.5600</text>
<line x1="84.0" y1="484.6" x2="1052.0" y2="484.6" stroke="#111827" stroke-width="1.2" />
<rect x="84.0" y="123.4" width="18.7" height="361.3" rx="4" fill="#2563eb"><title>adaptive | feature_coverage=0.5000</title></rect>
<text x="93.4" y="578.0" font-size="11" font-family="Arial, Helvetica, sans-serif" fill="#111827" text-anchor="middle" transform="rotate(-28 93.4 578.0)">adaptive</text>
<text x="93.4" y="115.4" font-size="11" font-family="Arial, Helvetica, sans-serif" fill="#374151" text-anchor="middle">0.5000</text>
<rect x="116.7" y="123.4" width="18.7" height="361.3" rx="4" fill="#2563eb"><title>conservative | feature_coverage=0.5000</title></rect>
<text x="126.1" y="578.0" font-size="11" font-family="Arial, Helvetica, sans-serif" fill="#111827" text-anchor="middle" transform="rotate(-28 126.1 578.0)">conservative</text>
<text x="126.1" y="115.4" font-size="11" font-family="Arial, Helvetica, sans-serif" fill="#374151" text-anchor="middle">0.5000</text>
<rect x="149.5" y="123.4" width="18.7" height="361.3" rx="4" fill="#2563eb"><title>learned_controller | feature_coverage=0.5000</title></rect>
<text x="158.8" y="578.0" font-size="11" font-family="Arial, Helvetica, sans-serif" fill="#111827" text-anchor="middle" transform="rotate(-28 158.8 578.0)">learned_controller</text>
<text x="158.8" y="115.4" font-size="11" font-family="Arial, Helvetica, sans-serif" fill="#374151" text-anchor="middle">0.5000</text>
<rect x="182.2" y="123.4" width="18.7" height="361.3" rx="4" fill="#2563eb"><title>llm_one_shot | feature_coverage=0.5000</title></rect>
<text x="191.6" y="578.0" font-size="11" font-family="Arial, Helvetica, sans-serif" fill="#111827" text-anchor="middle" transform="rotate(-28 191.6 578.0)">llm_one_shot</text>
<text x="191.6" y="115.4" font-size="11" font-family="Arial, Helvetica, sans-serif" fill="#374151" text-anchor="middle">0.5000</text>
<rect x="214.9" y="123.4" width="18.7" height="361.3" rx="4" fill="#7c3aed"><title>adaptive | feature_coverage=0.5000</title></rect>
<text x="224.3" y="578.0" font-size="11" font-family="Arial, Helvetica, sans-serif" fill="#111827" text-anchor="middle" transform="rotate(-28 224.3 578.0)">adaptive</text>
<text x="224.3" y="115.4" font-size="11" font-family="Arial, Helvetica, sans-serif" fill="#374151" text-anchor="middle">0.5000</text>
<rect x="247.7" y="123.4" width="18.7" height="361.3" rx="4" fill="#7c3aed"><title>conservative | feature_coverage=0.5000</title></rect>
<text x="257.0" y="578.0" font-size="11" font-family="Arial, Helvetica, sans-serif" fill="#111827" text-anchor="middle" transform="rotate(-28 257.0 578.0)">conservative</text>
<text x="257.0" y="115.4" font-size="11" font-family="Arial, Helvetica, sans-serif" fill="#374151" text-anchor="middle">0.5000</text>
<rect x="280.4" y="123.4" width="18.7" height="361.3" rx="4" fill="#7c3aed"><title>learned_controller | feature_coverage=0.5000</title></rect>
<text x="289.8" y="578.0" font-size="11" font-family="Arial, Helvetica, sans-serif" fill="#111827" text-anchor="middle" transform="rotate(-28 289.8 578.0)">learned_controller</text>
<text x="289.8" y="115.4" font-size="11" font-family="Arial, Helvetica, sans-serif" fill="#374151" text-anchor="middle">0.5000</text>
<rect x="313.1" y="123.4" width="18.7" height="361.3" rx="4" fill="#7c3aed"><title>llm_one_shot | feature_coverage=0.5000</title></rect>
<text x="322.5" y="578.0" font-size="11" font-family="Arial, Helvetica, sans-serif" fill="#111827" text-anchor="middle" transform="rotate(-28 322.5 578.0)">llm_one_shot</text>
<text x="322.5" y="115.4" font-size="11" font-family="Arial, Helvetica, sans-serif" fill="#374151" text-anchor="middle">0.5000</text>
<rect x="345.9" y="123.4" width="18.7" height="361.3" rx="4" fill="#2563eb"><title>adaptive | feature_coverage=0.5000</title></rect>
<text x="355.2" y="578.0" font-size="11" font-family="Arial, Helvetica, sans-serif" fill="#111827" text-anchor="middle" transform="rotate(-28 355.2 578.0)">adaptive</text>
<text x="355.2" y="115.4" font-size="11" font-family="Arial, Helvetica, sans-serif" fill="#374151" text-anchor="middle">0.5000</text>
<rect x="378.6" y="123.4" width="18.7" height="361.3" rx="4" fill="#2563eb"><title>conservative | feature_coverage=0.5000</title></rect>
<text x="388.0" y="578.0" font-size="11" font-family="Arial, Helvetica, sans-serif" fill="#111827" text-anchor="middle" transform="rotate(-28 388.0 578.0)">conservative</text>
<text x="388.0" y="115.4" font-size="11" font-family="Arial, Helvetica, sans-serif" fill="#374151" text-anchor="middle">0.5000</text>
<rect x="411.3" y="123.4" width="18.7" height="361.3" rx="4" fill="#2563eb"><title>learned_controller | feature_coverage=0.5000</title></rect>
<text x="420.7" y="578.0" font-size="11" font-family="Arial, Helvetica, sans-serif" fill="#111827" text-anchor="middle" transform="rotate(-28 420.7 578.0)">learned_controller</text>
<text x="420.7" y="115.4" font-size="11" font-family="Arial, Helvetica, sans-serif" fill="#374151" text-anchor="middle">0.5000</text>
<rect x="444.1" y="123.4" width="18.7" height="361.3" rx="4" fill="#2563eb"><title>llm_one_shot | feature_coverage=0.5000</title></rect>
<text x="453.4" y="578.0" font-size="11" font-family="Arial, Helvetica, sans-serif" fill="#111827" text-anchor="middle" transform="rotate(-28 453.4 578.0)">llm_one_shot</text>
<text x="453.4" y="115.4" font-size="11" font-family="Arial, Helvetica, sans-serif" fill="#374151" text-anchor="middle">0.5000</text>
<rect x="476.8" y="123.4" width="18.7" height="361.3" rx="4" fill="#2563eb"><title>adaptive | feature_coverage=0.5000</title></rect>
<text x="486.2" y="578.0" font-size="11" font-family="Arial, Helvetica, sans-serif" fill="#111827" text-anchor="middle" transform="rotate(-28 486.2 578.0)">adaptive</text>
<text x="486.2" y="115.4" font-size="11" font-family="Arial, Helvetica, sans-serif" fill="#374151" text-anchor="middle">0.5000</text>
<rect x="509.5" y="123.4" width="18.7" height="361.3" rx="4" fill="#2563eb"><title>conservative | feature_coverage=0.5000</title></rect>
<text x="518.9" y="578.0" font-size="11" font-family="Arial, Helvetica, sans-serif" fill="#111827" text-anchor="middle" transform="rotate(-28 518.9 578.0)">conservative</text>
<text x="518.9" y="115.4" font-size="11" font-family="Arial, Helvetica, sans-serif" fill="#374151" text-anchor="middle">0.5000</text>
<rect x="542.3" y="123.4" width="18.7" height="361.3" rx="4" fill="#2563eb"><title>learned_controller | feature_coverage=0.5000</title></rect>
<text x="551.6" y="578.0" font-size="11" font-family="Arial, Helvetica, sans-serif" fill="#111827" text-anchor="middle" transform="rotate(-28 551.6 578.0)">learned_controller</text>
<text x="551.6" y="115.4" font-size="11" font-family="Arial, Helvetica, sans-serif" fill="#374151" text-anchor="middle">0.5000</text>
<rect x="575.0" y="123.4" width="18.7" height="361.3" rx="4" fill="#2563eb"><title>llm_one_shot | feature_coverage=0.5000</title></rect>
<text x="584.4" y="578.0" font-size="11" font-family="Arial, Helvetica, sans-serif" fill="#111827" text-anchor="middle" transform="rotate(-28 584.4 578.0)">llm_one_shot</text>
<text x="584.4" y="115.4" font-size="11" font-family="Arial, Helvetica, sans-serif" fill="#374151" text-anchor="middle">0.5000</text>
<rect x="607.7" y="123.4" width="18.7" height="361.3" rx="4" fill="#2563eb"><title>adaptive | feature_coverage=0.5000</title></rect>
<text x="617.1" y="578.0" font-size="11" font-family="Arial, Helvetica, sans-serif" fill="#111827" text-anchor="middle" transform="rotate(-28 617.1 578.0)">adaptive</text>
<text x="617.1" y="115.4" font-size="11" font-family="Arial, Helvetica, sans-serif" fill="#374151" text-anchor="middle">0.5000</text>
<rect x="640.5" y="123.4" width="18.7" height="361.3" rx="4" fill="#2563eb"><title>conservative | feature_coverage=0.5000</title></rect>
<text x="649.8" y="578.0" font-size="11" font-family="Arial, Helvetica, sans-serif" fill="#111827" text-anchor="middle" transform="rotate(-28 649.8 578.0)">conservative</text>
<text x="649.8" y="115.4" font-size="11" font-family="Arial, Helvetica, sans-serif" fill="#374151" text-anchor="middle">0.5000</text>
<rect x="673.2" y="123.4" width="18.7" height="361.3" rx="4" fill="#2563eb"><title>learned_controller | feature_coverage=0.5000</title></rect>
<text x="682.6" y="578.0" font-size="11" font-family="Arial, Helvetica, sans-serif" fill="#111827" text-anchor="middle" transform="rotate(-28 682.6 578.0)">learned_controller</text>
<text x="682.6" y="115.4" font-size="11" font-family="Arial, Helvetica, sans-serif" fill="#374151" text-anchor="middle">0.5000</text>
<rect x="705.9" y="123.4" width="18.7" height="361.3" rx="4" fill="#2563eb"><title>llm_one_shot | feature_coverage=0.5000</title></rect>
<text x="715.3" y="578.0" font-size="11" font-family="Arial, Helvetica, sans-serif" fill="#111827" text-anchor="middle" transform="rotate(-28 715.3 578.0)">llm_one_shot</text>
<text x="715.3" y="115.4" font-size="11" font-family="Arial, Helvetica, sans-serif" fill="#374151" text-anchor="middle">0.5000</text>
<rect x="738.7" y="484.6" width="18.7" height="1.0" rx="4" fill="#2563eb"><title>vanilla | feature_coverage=0.0000</title></rect>
<text x="748.0" y="578.0" font-size="11" font-family="Arial, Helvetica, sans-serif" fill="#111827" text-anchor="middle" transform="rotate(-28 748.0 578.0)">vanilla</text>
<text x="748.0" y="476.6" font-size="11" font-family="Arial, Helvetica, sans-serif" fill="#374151" text-anchor="middle">0.0000</text>
<rect x="771.4" y="484.6" width="18.7" height="1.0" rx="4" fill="#2563eb"><title>safe_fallback_only | feature_coverage=0.0000</title></rect>
<text x="780.8" y="578.0" font-size="11" font-family="Arial, Helvetica, sans-serif" fill="#111827" text-anchor="middle" transform="rotate(-28 780.8 578.0)">safe_fallback_only</text>
<text x="780.8" y="476.6" font-size="11" font-family="Arial, Helvetica, sans-serif" fill="#374151" text-anchor="middle">0.0000</text>
<rect x="804.1" y="484.6" width="18.7" height="1.0" rx="4" fill="#7c3aed"><title>vanilla | feature_coverage=0.0000</title></rect>
<text x="813.5" y="578.0" font-size="11" font-family="Arial, Helvetica, sans-serif" fill="#111827" text-anchor="middle" transform="rotate(-28 813.5 578.0)">vanilla</text>
<text x="813.5" y="476.6" font-size="11" font-family="Arial, Helvetica, sans-serif" fill="#374151" text-anchor="middle">0.0000</text>
<rect x="836.9" y="484.6" width="18.7" height="1.0" rx="4" fill="#7c3aed"><title>safe_fallback_only | feature_coverage=0.0000</title></rect>
<text x="846.2" y="578.0" font-size="11" font-family="Arial, Helvetica, sans-serif" fill="#111827" text-anchor="middle" transform="rotate(-28 846.2 578.0)">safe_fallback_only</text>
<text x="846.2" y="476.6" font-size="11" font-family="Arial, Helvetica, sans-serif" fill="#374151" text-anchor="middle">0.0000</text>
<rect x="869.6" y="484.6" width="18.7" height="1.0" rx="4" fill="#2563eb"><title>vanilla | feature_coverage=0.0000</title></rect>
<text x="879.0" y="578.0" font-size="11" font-family="Arial, Helvetica, sans-serif" fill="#111827" text-anchor="middle" transform="rotate(-28 879.0 578.0)">vanilla</text>
<text x="879.0" y="476.6" font-size="11" font-family="Arial, Helvetica, sans-serif" fill="#374151" text-anchor="middle">0.0000</text>
<rect x="902.3" y="484.6" width="18.7" height="1.0" rx="4" fill="#2563eb"><title>safe_fallback_only | feature_coverage=0.0000</title></rect>
<text x="911.7" y="578.0" font-size="11" font-family="Arial, Helvetica, sans-serif" fill="#111827" text-anchor="middle" transform="rotate(-28 911.7 578.0)">safe_fallback_only</text>
<text x="911.7" y="476.6" font-size="11" font-family="Arial, Helvetica, sans-serif" fill="#374151" text-anchor="middle">0.0000</text>
<rect x="935.1" y="484.6" width="18.7" height="1.0" rx="4" fill="#2563eb"><title>vanilla | feature_coverage=0.0000</title></rect>
<text x="944.4" y="578.0" font-size="11" font-family="Arial, Helvetica, sans-serif" fill="#111827" text-anchor="middle" transform="rotate(-28 944.4 578.0)">vanilla</text>
<text x="944.4" y="476.6" font-size="11" font-family="Arial, Helvetica, sans-serif" fill="#374151" text-anchor="middle">0.0000</text>
<rect x="967.8" y="484.6" width="18.7" height="1.0" rx="4" fill="#2563eb"><title>safe_fallback_only | feature_coverage=0.0000</title></rect>
<text x="977.2" y="578.0" font-size="11" font-family="Arial, Helvetica, sans-serif" fill="#111827" text-anchor="middle" transform="rotate(-28 977.2 578.0)">safe_fallback_only</text>
<text x="977.2" y="476.6" font-size="11" font-family="Arial, Helvetica, sans-serif" fill="#374151" text-anchor="middle">0.0000</text>
<rect x="1000.5" y="484.6" width="18.7" height="1.0" rx="4" fill="#2563eb"><title>vanilla | feature_coverage=0.0000</title></rect>
<text x="1009.9" y="578.0" font-size="11" font-family="Arial, Helvetica, sans-serif" fill="#111827" text-anchor="middle" transform="rotate(-28 1009.9 578.0)">vanilla</text>
<text x="1009.9" y="476.6" font-size="11" font-family="Arial, Helvetica, sans-serif" fill="#374151" text-anchor="middle">0.0000</text>
<rect x="1033.3" y="484.6" width="18.7" height="1.0" rx="4" fill="#2563eb"><title>safe_fallback_only | feature_coverage=0.0000</title></rect>
<text x="1042.6" y="578.0" font-size="11" font-family="Arial, Helvetica, sans-serif" fill="#111827" text-anchor="middle" transform="rotate(-28 1042.6 578.0)">safe_fallback_only</text>
<text x="1042.6" y="476.6" font-size="11" font-family="Arial, Helvetica, sans-serif" fill="#374151" text-anchor="middle">0.0000</text>
<rect x="84" y="608" width="12" height="12" rx="2" fill="#2563eb" />
<text x="102.0" y="618.0" font-size="12" font-family="Arial, Helvetica, sans-serif" fill="#374151" text-anchor="start">train</text>
<rect x="232" y="608" width="12" height="12" rx="2" fill="#7c3aed" />
<text x="250.0" y="618.0" font-size="12" font-family="Arial, Helvetica, sans-serif" fill="#374151" text-anchor="start">validation</text>
<rect x="380" y="608" width="12" height="12" rx="2" fill="#2563eb" />
<text x="398.0" y="618.0" font-size="12" font-family="Arial, Helvetica, sans-serif" fill="#374151" text-anchor="start">test</text>
<text x="84" y="62" font-size="13" font-family="Arial, Helvetica, sans-serif" fill="#6b7280">metric=feature_coverage items=30</text>
<text x="22.0" y="90.0" font-size="12" font-family="Arial, Helvetica, sans-serif" fill="#374151" text-anchor="start" transform="rotate(-90 22.0 90.0)">feature_coverage</text>
</svg>