<?xml version="1.0" encoding="UTF-8"?>
<svg xmlns="http://www.w3.org/2000/svg" width="1080" height="640" viewBox="0 0 1080 640">
<rect width="100%" height="100%" fill="#ffffff" />
<text x="36" y="40" font-size="24" font-family="Arial, Helvetica, sans-serif" fill="#111827">Feature Coverage</text>
<text x="36" y="62" font-size="12" font-family="Arial, Helvetica, sans-serif" fill="#6b7280">chart=bar generated_from_csv=true</text>
<line x1="84.0" y1="528.0" x2="1052.0" y2="528.0" stroke="#e5e7eb" stroke-width="1.0" />
<text x="74.0" y="532.0" font-size="11" font-family="Arial, Helvetica, sans-serif" fill="#6b7280" text-anchor="end">-0.0480</text>
<line x1="84.0" y1="438.4" x2="1052.0" y2="438.4" stroke="#e5e7eb" stroke-width="1.0" />
<text x="74.0" y="442.4" font-size="11" font-family="Arial, Helvetica, sans-serif" fill="#6b7280" text-anchor="end">0.0512</text>
<line x1="84.0" y1="348.8" x2="1052.0" y2="348.8" stroke="#e5e7eb" stroke-width="1.0" />
<text x="74.0" y="352.8" font-size="11" font-family="Arial, Helvetica, sans-serif" fill="#6b7280" text-anchor="end">0.1504</text>
<line x1="84.0" y1="259.2" x2="1052.0" y2="259.2" stroke="#e5e7eb" stroke-width="1.0" />
<text x="74.0" y="263.2" font-size="11" font-family="Arial, Helvetica, sans-serif" fill="#6b7280" text-anchor="end">0.2496</text>
<line x1="84.0" y1="169.6" x2="1052.0" y2="169.6" stroke="#e5e7eb" stroke-width="1.0" />
<text x="74.0" y="173.6" font-size="11" font-family="Arial, Helvetica, sans-serif" fill="#6b7280" text-anchor="end">0.3488</text>
<line x1="84.0" y1="80.0" x2="1052.0" y2="80.0" stroke="#e5e7eb" stroke-width="1.0" />
<text x="74.0" y="84.0" font-size="11" font-family="Arial, Helvetica, sans-serif" fill="#6b7280" text-anchor="end">0.4480</text>
<line x1="84.0" y1="484.6" x2="1052.0" y2="484.6" stroke="#111827" stroke-width="1.2" />
<rect x="84.0" y="123.4" width="18.0" height="361.3" rx="4" fill="#2563eb"><title>adaptive | feature_coverage=0.4000</title></rect>
<text x="93.0" y="578.0" font-size="11" font-family="Arial, Helvetica, sans-serif" fill="#111827" text-anchor="middle" transform="rotate(-28 93.0 578.0)">adaptive</text>
<text x="93.0" y="115.4" font-size="11" font-family="Arial, Helvetica, sans-serif" fill="#374151" text-anchor="middle">0.4000</text>
<rect x="116.0" y="123.4" width="18.0" height="361.3" rx="4" fill="#2563eb"><title>learned_controller | feature_coverage=0.4000</title></rect>
<text x="125.0" y="578.0" font-size="11" font-family="Arial, Helvetica, sans-serif" fill="#111827" text-anchor="middle" transform="rotate(-28 125.0 578.0)">learned_controller</text>
<text x="125.0" y="115.4" font-size="11" font-family="Arial, Helvetica, sans-serif" fill="#374151" text-anchor="middle">0.4000</text>
<rect x="148.0" y="123.4" width="18.0" height="361.3" rx="4" fill="#16a34a"><title>adaptive | feature_coverage=0.4000</title></rect>
<text x="157.0" y="578.0" font-size="11" font-family="Arial, Helvetica, sans-serif" fill="#111827" text-anchor="middle" transform="rotate(-28 157.0 578.0)">adaptive</text>
<text x="157.0" y="115.4" font-size="11" font-family="Arial, Helvetica, sans-serif" fill="#374151" text-anchor="middle">0.4000</text>
<rect x="180.0" y="123.4" width="18.0" height="361.3" rx="4" fill="#16a34a"><title>learned_controller | feature_coverage=0.4000</title></rect>
<text x="189.0" y="578.0" font-size="11" font-family="Arial, Helvetica, sans-serif" fill="#111827" text-anchor="middle" transform="rotate(-28 189.0 578.0)">learned_controller</text>
<text x="189.0" y="115.4" font-size="11" font-family="Arial, Helvetica, sans-serif" fill="#374151" text-anchor="middle">0.4000</text>
<rect x="212.0" y="123.4" width="18.0" height="361.3" rx="4" fill="#7c3aed"><title>adaptive | feature_coverage=0.4000</title></rect>
<text x="221.0" y="578.0" font-size="11" font-family="Arial, Helvetica, sans-serif" fill="#111827" text-anchor="middle" transform="rotate(-28 221.0 578.0)">adaptive</text>
<text x="221.0" y="115.4" font-size="11" font-family="Arial, Helvetica, sans-serif" fill="#374151" text-anchor="middle">0.4000</text>
<rect x="244.0" y="123.4" width="18.0" height="361.3" rx="4" fill="#7c3aed"><title>learned_controller | feature_coverage=0.4000</title></rect>
<text x="253.0" y="578.0" font-size="11" font-family="Arial, Helvetica, sans-serif" fill="#111827" text-anchor="middle" transform="rotate(-28 253.0 578.0)">learned_controller</text>
<text x="253.0" y="115.4" font-size="11" font-family="Arial, Helvetica, sans-serif" fill="#374151" text-anchor="middle">0.4000</text>
<rect x="276.0" y="123.4" width="18.0" height="361.3" rx="4" fill="#7c3aed"><title>adaptive | feature_coverage=0.4000</title></rect>
<text x="285.0" y="578.0" font-size="11" font-family="Arial, Helvetica, sans-serif" fill="#111827" text-anchor="middle" transform="rotate(-28 285.0 578.0)">adaptive</text>
<text x="285.0" y="115.4" font-size="11" font-family="Arial, Helvetica, sans-serif" fill="#374151" text-anchor="middle">0.4000</text>
<rect x="308.0" y="123.4" width="18.0" height="361.3" rx="4" fill="#7c3aed"><title>learned_controller | feature_coverage=0.4000</title></rect>
<text x="317.0" y="578.0" font-size="11" font-family="Arial, Helvetica, sans-serif" fill="#111827" text-anchor="middle" transform="rotate(-28 317.0 578.0)">learned_controller</text>
<text x="317.0" y="115.4" font-size="11" font-family="Arial, Helvetica, sans-serif" fill="#374151" text-anchor="middle">0.4000</text>
<rect x="340.0" y="123.4" width="18.0" height="361.3" rx="4" fill="#7c3aed"><title>adaptive | feature_coverage=0.4000</title></rect>
<text x="349.0" y="578.0" font-size="11" font-family="Arial, Helvetica, sans-serif" fill="#111827" text-anchor="middle" transform="rotate(-28 349.0 578.0)">adaptive</text>
<text x="349.0" y="115.4" font-size="11" font-family="Arial, Helvetica, sans-serif" fill="#374151" text-anchor="middle">0.4000</text>
<rect x="372.0" y="123.4" width="18.0" height="361.3" rx="4" fill="#7c3aed"><title>learned_controller | feature_coverage=0.4000</title></rect>
<text x="381.0" y="578.0" font-size="11" font-family="Arial, Helvetica, sans-serif" fill="#111827" text-anchor="middle" transform="rotate(-28 381.0 578.0)">learned_controller</text>
<text x="381.0" y="115.4" font-size="11" font-family="Arial, Helvetica, sans-serif" fill="#374151" text-anchor="middle">0.4000</text>
<rect x="404.0" y="123.4" width="18.0" height="361.3" rx="4" fill="#7c3aed"><title>adaptive | feature_coverage=0.4000</title></rect>
<text x="413.0" y="578.0" font-size="11" font-family="Arial, Helvetica, sans-serif" fill="#111827" text-anchor="middle" transform="rotate(-28 413.0 578.0)">adaptive</text>
<text x="413.0" y="115.4" font-size="11" font-family="Arial, Helvetica, sans-serif" fill="#374151" text-anchor="middle">0.4000</text>
<rect x="436.0" y="123.4" width="18.0" height="361.3" rx="4" fill="#7c3aed"><title>learned_controller | feature_coverage=0.4000</title></rect>
<text x="445.0" y="578.0" font-size="11" font-family="Arial, Helvetica, sans-serif" fill="#111827" text-anchor="middle" transform="rotate(-28 445.0 578.0)">learned_controller</text>
<text x="445.0" y="115.4" font-size="11" font-family="Arial, Helvetica, sans-serif" fill="#374151" text-anchor="middle">0.4000</text>
<rect x="468.0" y="484.6" width="18.0" height="1.0" rx="4" fill="#2563eb"><title>vanilla | feature_coverage=0.0000</title></rect>
<text x="477.0" y="578.0" font-size="11" font-family="Arial, Helvetica, sans-serif" fill="#111827" text-anchor="middle" transform="rotate(-28 477.0 578.0)">vanilla</text>
<text x="477.0" y="476.6" font-size="11" font-family="Arial, Helvetica, sans-serif" fill="#374151" text-anchor="middle">0.0000</text>
<rect x="500.0" y="484.6" width="18.0" height="1.0" rx="4" fill="#2563eb"><title>conservative | feature_coverage=0.0000</title></rect>
<text x="509.0" y="578.0" font-size="11" font-family="Arial, Helvetica, sans-serif" fill="#111827" text-anchor="middle" transform="rotate(-28 509.0 578.0)">conservative</text>
<text x="509.0" y="476.6" font-size="11" font-family="Arial, Helvetica, sans-serif" fill="#374151" text-anchor="middle">0.0000</text>
<rect x="532.0" y="484.6" width="18.0" height="1.0" rx="4" fill="#2563eb"><title>safe_fallback_only | feature_coverage=0.0000</title></rect>
<text x="541.0" y="578.0" font-size="11" font-family="Arial, Helvetica, sans-serif" fill="#111827" text-anchor="middle" transform="rotate(-28 541.0 578.0)">safe_fallback_only</text>
<text x="541.0" y="476.6" font-size="11" font-family="Arial, Helvetica, sans-serif" fill="#374151" text-anchor="middle">0.0000</text>
<rect x="564.0" y="484.6" width="18.0" height="1.0" rx="4" fill="#2563eb"><title>llm_one_shot | feature_coverage=0.0000</title></rect>
<text x="573.0" y="578.0" font-size="11" font-family="Arial, Helvetica, sans-serif" fill="#111827" text-anchor="middle" transform="rotate(-28 573.0 578.0)">llm_one_shot</text>
<text x="573.0" y="476.6" font-size="11" font-family="Arial, Helvetica, sans-serif" fill="#374151" text-anchor="middle">0.0000</text>
<rect x="596.0" y="484.6" width="18.0" height="1.0" rx="4" fill="#16a34a"><title>vanilla | feature_coverage=0.0000</title></rect>
<text x="605.0" y="578.0" font-size="11" font-family="Arial, Helvetica, sans-serif" fill="#111827" text-anchor="middle" transform="rotate(-28 605.0 578.0)">vanilla</text>
<text x="605.0" y="476.6" font-size="11" font-family="Arial, Helvetica, sans-serif" fill="#374151" text-anchor="middle">0.0000</text>
<rect x="628.0" y="484.6" width="18.0" height="1.0" rx="4" fill="#16a34a"><title>conservative | feature_coverage=0.0000</title></rect>
<text x="637.0" y="578.0" font-size="11" font-family="Arial, Helvetica, sans-serif" fill="#111827" text-anchor="middle" transform="rotate(-28 637.0 578.0)">conservative</text>
<text x="637.0" y="476.6" font-size="11" font-family="Arial, Helvetica, sans-serif" fill="#374151" text-anchor="middle">0.0000</text>
<rect x="660.0" y="484.6" width="18.0" height="1.0" rx="4" fill="#16a34a"><title>safe_fallback_only | feature_coverage=0.0000</title></rect>
<text x="669.0" y="578.0" font-size="11" font-family="Arial, Helvetica, sans-serif" fill="#111827" text-anchor="middle" transform="rotate(-28 669.0 578.0)">safe_fallback_only</text>
<text x="669.0" y="476.6" font-size="11" font-family="Arial, Helvetica, sans-serif" fill="#374151" text-anchor="middle">0.0000</text>
<rect x="692.0" y="484.6" width="18.0" height="1.0" rx="4" fill="#16a34a"><title>llm_one_shot | feature_coverage=0.0000</title></rect>
<text x="701.0" y="578.0" font-size="11" font-family="Arial, Helvetica, sans-serif" fill="#111827" text-anchor="middle" transform="rotate(-28 701.0 578.0)">llm_one_shot</text>
<text x="701.0" y="476.6" font-size="11" font-family="Arial, Helvetica, sans-serif" fill="#374151" text-anchor="middle">0.0000</text>
<rect x="724.0" y="484.6" width="18.0" height="1.0" rx="4" fill="#7c3aed"><title>vanilla | feature_coverage=0.0000</title></rect>
<text x="733.0" y="578.0" font-size="11" font-family="Arial, Helvetica, sans-serif" fill="#111827" text-anchor="middle" transform="rotate(-28 733.0 578.0)">vanilla</text>
<text x="733.0" y="476.6" font-size="11" font-family="Arial, Helvetica, sans-serif" fill="#374151" text-anchor="middle">0.0000</text>
<rect x="756.0" y="484.6" width="18.0" height="1.0" rx="4" fill="#7c3aed"><title>conservative | feature_coverage=0.0000</title></rect>
<text x="765.0" y="578.0" font-size="11" font-family="Arial, Helvetica, sans-serif" fill="#111827" text-anchor="middle" transform="rotate(-28 765.0 578.0)">conservative</text>
<text x="765.0" y="476.6" font-size="11" font-family="Arial, Helvetica, sans-serif" fill="#374151" text-anchor="middle">0.0000</text>
<rect x="788.0" y="484.6" width="18.0" height="1.0" rx="4" fill="#7c3aed"><title>safe_fallback_only | feature_coverage=0.0000</title></rect>
<text x="797.0" y="578.0" font-size="11" font-family="Arial, Helvetica, sans-serif" fill="#111827" text-anchor="middle" transform="rotate(-28 797.0 578.0)">safe_fallback_only</text>
<text x="797.0" y="476.6" font-size="11" font-family="Arial, Helvetica, sans-serif" fill="#374151" text-anchor="middle">0.0000</text>
<rect x="820.0" y="484.6" width="18.0" height="1.0" rx="4" fill="#7c3aed"><title>llm_one_shot | feature_coverage=0.0000</title></rect>
<text x="829.0" y="578.0" font-size="11" font-family="Arial, Helvetica, sans-serif" fill="#111827" text-anchor="middle" transform="rotate(-28 829.0 578.0)">llm_one_shot</text>
<text x="829.0" y="476.6" font-size="11" font-family="Arial, Helvetica, sans-serif" fill="#374151" text-anchor="middle">0.0000</text>
<rect x="852.0" y="484.6" width="18.0" height="1.0" rx="4" fill="#7c3aed"><title>vanilla | feature_coverage=0.0000</title></rect>
<text x="861.0" y="578.0" font-size="11" font-family="Arial, Helvetica, sans-serif" fill="#111827" text-anchor="middle" transform="rotate(-28 861.0 578.0)">vanilla</text>
<text x="861.0" y="476.6" font-size="11" font-family="Arial, Helvetica, sans-serif" fill="#374151" text-anchor="middle">0.0000</text>
<rect x="884.0" y="484.6" width="18.0" height="1.0" rx="4" fill="#7c3aed"><title>conservative | feature_coverage=0.0000</title></rect>
<text x="893.0" y="578.0" font-size="11" font-family="Arial, Helvetica, sans-serif" fill="#111827" text-anchor="middle" transform="rotate(-28 893.0 578.0)">conservative</text>
<text x="893.0" y="476.6" font-size="11" font-family="Arial, Helvetica, sans-serif" fill="#374151" text-anchor="middle">0.0000</text>
<rect x="916.0" y="484.6" width="18.0" height="1.0" rx="4" fill="#7c3aed"><title>safe_fallback_only | feature_coverage=0.0000</title></rect>
<text x="925.0" y="578.0" font-size="11" font-family="Arial, Helvetica, sans-serif" fill="#111827" text-anchor="middle" transform="rotate(-28 925.0 578.0)">safe_fallback_only</text>
<text x="925.0" y="476.6" font-size="11" font-family="Arial, Helvetica, sans-serif" fill="#374151" text-anchor="middle">0.0000</text>
<rect x="948.0" y="484.6" width="18.0" height="1.0" rx="4" fill="#7c3aed"><title>llm_one_shot | feature_coverage=0.0000</title></rect>
<text x="957.0" y="578.0" font-size="11" font-family="Arial, Helvetica, sans-serif" fill="#111827" text-anchor="middle" transform="rotate(-28 957.0 578.0)">llm_one_shot</text>
<text x="957.0" y="476.6" font-size="11" font-family="Arial, Helvetica, sans-serif" fill="#374151" text-anchor="middle">0.0000</text>
<rect x="980.0" y="484.6" width="18.0" height="1.0" rx="4" fill="#7c3aed"><title>vanilla | feature_coverage=0.0000</title></rect>
<text x="989.0" y="578.0" font-size="11" font-family="Arial, Helvetica, sans-serif" fill="#111827" text-anchor="middle" transform="rotate(-28 989.0 578.0)">vanilla</text>
<text x="989.0" y="476.6" font-size="11" font-family="Arial, Helvetica, sans-serif" fill="#374151" text-anchor="middle">0.0000</text>
<rect x="1012.0" y="484.6" width="18.0" height="1.0" rx="4" fill="#7c3aed"><title>conservative | feature_coverage=0.0000</title></rect>
<text x="1021.0" y="578.0" font-size="11" font-family="Arial, Helvetica, sans-serif" fill="#111827" text-anchor="middle" transform="rotate(-28 1021.0 578.0)">conservative</text>
<text x="1021.0" y="476.6" font-size="11" font-family="Arial, Helvetica, sans-serif" fill="#374151" text-anchor="middle">0.0000</text>
<rect x="1044.0" y="484.6" width="18.0" height="1.0" rx="4" fill="#7c3aed"><title>safe_fallback_only | feature_coverage=0.0000</title></rect>
<text x="1053.0" y="578.0" font-size="11" font-family="Arial, Helvetica, sans-serif" fill="#111827" text-anchor="middle" transform="rotate(-28 1053.0 578.0)">safe_fallback_only</text>
<text x="1053.0" y="476.6" font-size="11" font-family="Arial, Helvetica, sans-serif" fill="#374151" text-anchor="middle">0.0000</text>
<rect x="1076.0" y="484.6" width="18.0" height="1.0" rx="4" fill="#7c3aed"><title>llm_one_shot | feature_coverage=0.0000</title></rect>
<text x="1085.0" y="578.0" font-size="11" font-family="Arial, Helvetica, sans-serif" fill="#111827" text-anchor="middle" transform="rotate(-28 1085.0 578.0)">llm_one_shot</text>
<text x="1085.0" y="476.6" font-size="11" font-family="Arial, Helvetica, sans-serif" fill="#374151" text-anchor="middle">0.0000</text>
<rect x="1108.0" y="484.6" width="18.0" height="1.0" rx="4" fill="#7c3aed"><title>vanilla | feature_coverage=0.0000</title></rect>
<text x="1117.0" y="578.0" font-size="11" font-family="Arial, Helvetica, sans-serif" fill="#111827" text-anchor="middle" transform="rotate(-28 1117.0 578.0)">vanilla</text>
<text x="1117.0" y="476.6" font-size="11" font-family="Arial, Helvetica, sans-serif" fill="#374151" text-anchor="middle">0.0000</text>
<rect x="1140.0" y="484.6" width="18.0" height="1.0" rx="4" fill="#7c3aed"><title>conservative | feature_coverage=0.0000</title></rect>
<text x="1149.0" y="578.0" font-size="11" font-family="Arial, Helvetica, sans-serif" fill="#111827" text-anchor="middle" transform="rotate(-28 1149.0 578.0)">conservative</text>
<text x="1149.0" y="476.6" font-size="11" font-family="Arial, Helvetica, sans-serif" fill="#374151" text-anchor="middle">0.0000</text>
<rect x="1172.0" y="484.6" width="18.0" height="1.0" rx="4" fill="#7c3aed"><title>safe_fallback_only | feature_coverage=0.0000</title></rect>
<text x="1181.0" y="578.0" font-size="11" font-family="Arial, Helvetica, sans-serif" fill="#111827" text-anchor="middle" transform="rotate(-28 1181.0 578.0)">safe_fallback_only</text>
<text x="1181.0" y="476.6" font-size="11" font-family="Arial, Helvetica, sans-serif" fill="#374151" text-anchor="middle">0.0000</text>
<rect x="1204.0" y="484.6" width="18.0" height="1.0" rx="4" fill="#7c3aed"><title>llm_one_shot | feature_coverage=0.0000</title></rect>
<text x="1213.0" y="578.0" font-size="11" font-family="Arial, Helvetica, sans-serif" fill="#111827" text-anchor="middle" transform="rotate(-28 1213.0 578.0)">llm_one_shot</text>
<text x="1213.0" y="476.6" font-size="11" font-family="Arial, Helvetica, sans-serif" fill="#374151" text-anchor="middle">0.0000</text>
<rect x="84" y="608" width="12" height="12" rx="2" fill="#2563eb" />
<text x="102.0" y="618.0" font-size="12" font-family="Arial, Helvetica, sans-serif" fill="#374151" text-anchor="start">train</text>
<rect x="232" y="608" width="12" height="12" rx="2" fill="#16a34a" />
<text x="250.0" y="618.0" font-size="12" font-family="Arial, Helvetica, sans-serif" fill="#374151" text-anchor="start">validation</text>
<rect x="380" y="608" width="12" height="12" rx="2" fill="#7c3aed" />
<text x="398.0" y="618.0" font-size="12" font-family="Arial, Helvetica, sans-serif" fill="#374151" text-anchor="start">test</text>
<text x="84" y="62" font-size="13" font-family="Arial, Helvetica, sans-serif" fill="#6b7280">metric=feature_coverage items=36</text>
<text x="22.0" y="90.0" font-size="12" font-family="Arial, Helvetica, sans-serif" fill="#374151" text-anchor="start" transform="rotate(-90 22.0 90.0)">feature_coverage</text>
</svg>