<?xml version="1.0" encoding="UTF-8"?>
<svg xmlns="http://www.w3.org/2000/svg" width="1080" height="640" viewBox="0 0 1080 640">
<rect width="100%" height="100%" fill="#ffffff" />
<text x="36" y="40" font-size="24" font-family="Arial, Helvetica, sans-serif" fill="#111827">OOD Score</text>
<text x="36" y="62" font-size="12" font-family="Arial, Helvetica, sans-serif" fill="#6b7280">chart=grouped-bar generated_from_csv=true</text>
<line x1="84.0" y1="528.0" x2="1052.0" y2="528.0" stroke="#e5e7eb" stroke-width="1.0" />
<text x="74.0" y="532.0" font-size="11" font-family="Arial, Helvetica, sans-serif" fill="#6b7280" text-anchor="end">-4.290</text>
<line x1="84.0" y1="438.4" x2="1052.0" y2="438.4" stroke="#e5e7eb" stroke-width="1.0" />
<text x="74.0" y="442.4" font-size="11" font-family="Arial, Helvetica, sans-serif" fill="#6b7280" text-anchor="end">-3.401</text>
<line x1="84.0" y1="348.8" x2="1052.0" y2="348.8" stroke="#e5e7eb" stroke-width="1.0" />
<text x="74.0" y="352.8" font-size="11" font-family="Arial, Helvetica, sans-serif" fill="#6b7280" text-anchor="end">-2.513</text>
<line x1="84.0" y1="259.2" x2="1052.0" y2="259.2" stroke="#e5e7eb" stroke-width="1.0" />
<text x="74.0" y="263.2" font-size="11" font-family="Arial, Helvetica, sans-serif" fill="#6b7280" text-anchor="end">-1.624</text>
<line x1="84.0" y1="169.6" x2="1052.0" y2="169.6" stroke="#e5e7eb" stroke-width="1.0" />
<text x="74.0" y="173.6" font-size="11" font-family="Arial, Helvetica, sans-serif" fill="#6b7280" text-anchor="end">-0.7354</text>
<line x1="84.0" y1="80.0" x2="1052.0" y2="80.0" stroke="#e5e7eb" stroke-width="1.0" />
<text x="74.0" y="84.0" font-size="11" font-family="Arial, Helvetica, sans-serif" fill="#6b7280" text-anchor="end">0.1532</text>
<line x1="84.0" y1="95.5" x2="1052.0" y2="95.5" stroke="#111827" stroke-width="1.2" />
<text x="245.3" y="592.0" font-size="12" font-family="Arial, Helvetica, sans-serif" fill="#111827" text-anchor="middle">train</text>
<rect x="129.2" y="95.5" width="40.0" height="29.4" rx="4" fill="#2563eb" />
<rect x="171.2" y="95.5" width="40.0" height="270.5" rx="4" fill="#f97316" />
<rect x="213.2" y="95.5" width="40.0" height="131.5" rx="4" fill="#16a34a" />
<text x="568.0" y="592.0" font-size="12" font-family="Arial, Helvetica, sans-serif" fill="#111827" text-anchor="middle">validation</text>
<rect x="451.8" y="95.5" width="40.0" height="27.9" rx="4" fill="#2563eb" />
<rect x="493.8" y="95.5" width="40.0" height="309.0" rx="4" fill="#f97316" />
<rect x="535.8" y="95.5" width="40.0" height="118.4" rx="4" fill="#16a34a" />
<text x="890.7" y="592.0" font-size="12" font-family="Arial, Helvetica, sans-serif" fill="#111827" text-anchor="middle">test</text>
<rect x="774.5" y="95.5" width="40.0" height="28.6" rx="4" fill="#2563eb" />
<rect x="816.5" y="95.5" width="40.0" height="389.2" rx="4" fill="#f97316" />
<rect x="858.5" y="95.5" width="40.0" height="167.6" rx="4" fill="#16a34a" />
<rect x="84" y="608" width="12" height="12" rx="2" fill="#2563eb" />
<text x="102.0" y="618.0" font-size="12" font-family="Arial, Helvetica, sans-serif" fill="#374151" text-anchor="start">vanilla</text>
<rect x="232" y="608" width="12" height="12" rx="2" fill="#f97316" />
<text x="250.0" y="618.0" font-size="12" font-family="Arial, Helvetica, sans-serif" fill="#374151" text-anchor="start">adaptive</text>
<rect x="380" y="608" width="12" height="12" rx="2" fill="#16a34a" />
<text x="398.0" y="618.0" font-size="12" font-family="Arial, Helvetica, sans-serif" fill="#374151" text-anchor="start">conservative</text>
<text x="84" y="62" font-size="13" font-family="Arial, Helvetica, sans-serif" fill="#6b7280">metric=score items=3</text>
<text x="22.0" y="90.0" font-size="12" font-family="Arial, Helvetica, sans-serif" fill="#374151" text-anchor="start" transform="rotate(-90 22.0 90.0)">score</text>
</svg>