<?xml version="1.0" encoding="UTF-8"?>
<svg xmlns="http://www.w3.org/2000/svg" width="1080" height="640" viewBox="0 0 1080 640">
<rect width="100%" height="100%" fill="#ffffff" />
<text x="36" y="40" font-size="24" font-family="Arial, Helvetica, sans-serif" fill="#111827">Feature Coverage</text>
<text x="36" y="62" font-size="12" font-family="Arial, Helvetica, sans-serif" fill="#6b7280">chart=bar generated_from_csv=true</text>
<line x1="84.0" y1="528.0" x2="1052.0" y2="528.0" stroke="#e5e7eb" stroke-width="1.0" />
<text x="74.0" y="532.0" font-size="11" font-family="Arial, Helvetica, sans-serif" fill="#6b7280" text-anchor="end">-0.0480</text>
<line x1="84.0" y1="438.4" x2="1052.0" y2="438.4" stroke="#e5e7eb" stroke-width="1.0" />
<text x="74.0" y="442.4" font-size="11" font-family="Arial, Helvetica, sans-serif" fill="#6b7280" text-anchor="end">0.0512</text>
<line x1="84.0" y1="348.8" x2="1052.0" y2="348.8" stroke="#e5e7eb" stroke-width="1.0" />
<text x="74.0" y="352.8" font-size="11" font-family="Arial, Helvetica, sans-serif" fill="#6b7280" text-anchor="end">0.1504</text>
<line x1="84.0" y1="259.2" x2="1052.0" y2="259.2" stroke="#e5e7eb" stroke-width="1.0" />
<text x="74.0" y="263.2" font-size="11" font-family="Arial, Helvetica, sans-serif" fill="#6b7280" text-anchor="end">0.2496</text>
<line x1="84.0" y1="169.6" x2="1052.0" y2="169.6" stroke="#e5e7eb" stroke-width="1.0" />
<text x="74.0" y="173.6" font-size="11" font-family="Arial, Helvetica, sans-serif" fill="#6b7280" text-anchor="end">0.3488</text>
<line x1="84.0" y1="80.0" x2="1052.0" y2="80.0" stroke="#e5e7eb" stroke-width="1.0" />
<text x="74.0" y="84.0" font-size="11" font-family="Arial, Helvetica, sans-serif" fill="#6b7280" text-anchor="end">0.4480</text>
<line x1="84.0" y1="484.6" x2="1052.0" y2="484.6" stroke="#111827" stroke-width="1.2" />
<rect x="134.0" y="123.4" width="84.0" height="361.3" rx="4" fill="#2563eb"><title>adaptive | feature_coverage=0.4000</title></rect>
<text x="176.0" y="578.0" font-size="11" font-family="Arial, Helvetica, sans-serif" fill="#111827" text-anchor="middle" transform="rotate(-28 176.0 578.0)">adaptive</text>
<text x="176.0" y="115.4" font-size="11" font-family="Arial, Helvetica, sans-serif" fill="#374151" text-anchor="middle">0.4000</text>
<rect x="232.0" y="123.4" width="84.0" height="361.3" rx="4" fill="#f97316"><title>adaptive | feature_coverage=0.4000</title></rect>
<text x="274.0" y="578.0" font-size="11" font-family="Arial, Helvetica, sans-serif" fill="#111827" text-anchor="middle" transform="rotate(-28 274.0 578.0)">adaptive</text>
<text x="274.0" y="115.4" font-size="11" font-family="Arial, Helvetica, sans-serif" fill="#374151" text-anchor="middle">0.4000</text>
<rect x="330.0" y="123.4" width="84.0" height="361.3" rx="4" fill="#16a34a"><title>adaptive | feature_coverage=0.4000</title></rect>
<text x="372.0" y="578.0" font-size="11" font-family="Arial, Helvetica, sans-serif" fill="#111827" text-anchor="middle" transform="rotate(-28 372.0 578.0)">adaptive</text>
<text x="372.0" y="115.4" font-size="11" font-family="Arial, Helvetica, sans-serif" fill="#374151" text-anchor="middle">0.4000</text>
<rect x="428.0" y="484.6" width="84.0" height="1.0" rx="4" fill="#2563eb"><title>vanilla | feature_coverage=0.0000</title></rect>
<text x="470.0" y="578.0" font-size="11" font-family="Arial, Helvetica, sans-serif" fill="#111827" text-anchor="middle" transform="rotate(-28 470.0 578.0)">vanilla</text>
<text x="470.0" y="476.6" font-size="11" font-family="Arial, Helvetica, sans-serif" fill="#374151" text-anchor="middle">0.0000</text>
<rect x="526.0" y="484.6" width="84.0" height="1.0" rx="4" fill="#2563eb"><title>conservative | feature_coverage=0.0000</title></rect>
<text x="568.0" y="578.0" font-size="11" font-family="Arial, Helvetica, sans-serif" fill="#111827" text-anchor="middle" transform="rotate(-28 568.0 578.0)">conservative</text>
<text x="568.0" y="476.6" font-size="11" font-family="Arial, Helvetica, sans-serif" fill="#374151" text-anchor="middle">0.0000</text>
<rect x="624.0" y="484.6" width="84.0" height="1.0" rx="4" fill="#f97316"><title>vanilla | feature_coverage=0.0000</title></rect>
<text x="666.0" y="578.0" font-size="11" font-family="Arial, Helvetica, sans-serif" fill="#111827" text-anchor="middle" transform="rotate(-28 666.0 578.0)">vanilla</text>
<text x="666.0" y="476.6" font-size="11" font-family="Arial, Helvetica, sans-serif" fill="#374151" text-anchor="middle">0.0000</text>
<rect x="722.0" y="484.6" width="84.0" height="1.0" rx="4" fill="#f97316"><title>conservative | feature_coverage=0.0000</title></rect>
<text x="764.0" y="578.0" font-size="11" font-family="Arial, Helvetica, sans-serif" fill="#111827" text-anchor="middle" transform="rotate(-28 764.0 578.0)">conservative</text>
<text x="764.0" y="476.6" font-size="11" font-family="Arial, Helvetica, sans-serif" fill="#374151" text-anchor="middle">0.0000</text>
<rect x="820.0" y="484.6" width="84.0" height="1.0" rx="4" fill="#16a34a"><title>vanilla | feature_coverage=0.0000</title></rect>
<text x="862.0" y="578.0" font-size="11" font-family="Arial, Helvetica, sans-serif" fill="#111827" text-anchor="middle" transform="rotate(-28 862.0 578.0)">vanilla</text>
<text x="862.0" y="476.6" font-size="11" font-family="Arial, Helvetica, sans-serif" fill="#374151" text-anchor="middle">0.0000</text>
<rect x="918.0" y="484.6" width="84.0" height="1.0" rx="4" fill="#16a34a"><title>conservative | feature_coverage=0.0000</title></rect>
<text x="960.0" y="578.0" font-size="11" font-family="Arial, Helvetica, sans-serif" fill="#111827" text-anchor="middle" transform="rotate(-28 960.0 578.0)">conservative</text>
<text x="960.0" y="476.6" font-size="11" font-family="Arial, Helvetica, sans-serif" fill="#374151" text-anchor="middle">0.0000</text>
<rect x="84" y="608" width="12" height="12" rx="2" fill="#2563eb" />
<text x="102.0" y="618.0" font-size="12" font-family="Arial, Helvetica, sans-serif" fill="#374151" text-anchor="start">train</text>
<rect x="232" y="608" width="12" height="12" rx="2" fill="#f97316" />
<text x="250.0" y="618.0" font-size="12" font-family="Arial, Helvetica, sans-serif" fill="#374151" text-anchor="start">validation</text>
<rect x="380" y="608" width="12" height="12" rx="2" fill="#16a34a" />
<text x="398.0" y="618.0" font-size="12" font-family="Arial, Helvetica, sans-serif" fill="#374151" text-anchor="start">test</text>
<text x="84" y="62" font-size="13" font-family="Arial, Helvetica, sans-serif" fill="#6b7280">metric=feature_coverage items=9</text>
<text x="22.0" y="90.0" font-size="12" font-family="Arial, Helvetica, sans-serif" fill="#374151" text-anchor="start" transform="rotate(-90 22.0 90.0)">feature_coverage</text>
</svg>