<?xml version="1.0" encoding="UTF-8"?>
<svg xmlns="http://www.w3.org/2000/svg" width="1080" height="640" viewBox="0 0 1080 640">
<rect width="100%" height="100%" fill="#ffffff" />
<text x="36" y="40" font-size="24" font-family="Arial, Helvetica, sans-serif" fill="#111827">Feature Coverage</text>
<text x="36" y="62" font-size="12" font-family="Arial, Helvetica, sans-serif" fill="#6b7280">chart=bar generated_from_csv=true</text>
<line x1="84.0" y1="528.0" x2="1052.0" y2="528.0" stroke="#e5e7eb" stroke-width="1.0" />
<text x="74.0" y="532.0" font-size="11" font-family="Arial, Helvetica, sans-serif" fill="#6b7280" text-anchor="end">-0.0600</text>
<line x1="84.0" y1="438.4" x2="1052.0" y2="438.4" stroke="#e5e7eb" stroke-width="1.0" />
<text x="74.0" y="442.4" font-size="11" font-family="Arial, Helvetica, sans-serif" fill="#6b7280" text-anchor="end">0.0640</text>
<line x1="84.0" y1="348.8" x2="1052.0" y2="348.8" stroke="#e5e7eb" stroke-width="1.0" />
<text x="74.0" y="352.8" font-size="11" font-family="Arial, Helvetica, sans-serif" fill="#6b7280" text-anchor="end">0.1880</text>
<line x1="84.0" y1="259.2" x2="1052.0" y2="259.2" stroke="#e5e7eb" stroke-width="1.0" />
<text x="74.0" y="263.2" font-size="11" font-family="Arial, Helvetica, sans-serif" fill="#6b7280" text-anchor="end">0.3120</text>
<line x1="84.0" y1="169.6" x2="1052.0" y2="169.6" stroke="#e5e7eb" stroke-width="1.0" />
<text x="74.0" y="173.6" font-size="11" font-family="Arial, Helvetica, sans-serif" fill="#6b7280" text-anchor="end">0.4360</text>
<line x1="84.0" y1="80.0" x2="1052.0" y2="80.0" stroke="#e5e7eb" stroke-width="1.0" />
<text x="74.0" y="84.0" font-size="11" font-family="Arial, Helvetica, sans-serif" fill="#6b7280" text-anchor="end">0.5600</text>
<line x1="84.0" y1="484.6" x2="1052.0" y2="484.6" stroke="#111827" stroke-width="1.2" />
<rect x="84.0" y="123.4" width="67.8" height="361.3" rx="4" fill="#2563eb"><title>admm_qp/adaptive | feature_coverage=0.5000 | origin=baseline</title></rect>
<text x="117.9" y="578.0" font-size="11" font-family="Arial, Helvetica, sans-serif" fill="#111827" text-anchor="middle" transform="rotate(-28 117.9 578.0)">admm_qp/adaptive</text>
<text x="117.9" y="115.4" font-size="11" font-family="Arial, Helvetica, sans-serif" fill="#374151" text-anchor="middle">0.5000</text>
<rect x="165.8" y="123.4" width="67.8" height="361.3" rx="4" fill="#2563eb"><title>admm_qp/conservative | feature_coverage=0.5000 | origin=baseline</title></rect>
<text x="199.7" y="578.0" font-size="11" font-family="Arial, Helvetica, sans-serif" fill="#111827" text-anchor="middle" transform="rotate(-28 199.7 578.0)">admm_qp/conservative</text>
<text x="199.7" y="115.4" font-size="11" font-family="Arial, Helvetica, sans-serif" fill="#374151" text-anchor="middle">0.5000</text>
<rect x="247.7" y="195.6" width="67.8" height="289.0" rx="4" fill="#2563eb"><title>fista_lasso/adaptive | feature_coverage=0.4000 | origin=baseline</title></rect>
<text x="281.6" y="578.0" font-size="11" font-family="Arial, Helvetica, sans-serif" fill="#111827" text-anchor="middle" transform="rotate(-28 281.6 578.0)">fista_lasso/adaptive</text>
<text x="281.6" y="187.6" font-size="11" font-family="Arial, Helvetica, sans-serif" fill="#374151" text-anchor="middle">0.4000</text>
<rect x="329.5" y="195.6" width="67.8" height="289.0" rx="4" fill="#2563eb"><title>fista_lasso/conservative | feature_coverage=0.4000 | origin=baseline</title></rect>
<text x="363.4" y="578.0" font-size="11" font-family="Arial, Helvetica, sans-serif" fill="#111827" text-anchor="middle" transform="rotate(-28 363.4 578.0)">fista_lasso/conservative</text>
<text x="363.4" y="187.6" font-size="11" font-family="Arial, Helvetica, sans-serif" fill="#374151" text-anchor="middle">0.4000</text>
<rect x="411.3" y="195.6" width="67.8" height="289.0" rx="4" fill="#2563eb"><title>miplib_rootlp/adaptive | feature_coverage=0.4000 | origin=baseline</title></rect>
<text x="445.2" y="578.0" font-size="11" font-family="Arial, Helvetica, sans-serif" fill="#111827" text-anchor="middle" transform="rotate(-28 445.2 578.0)">miplib_rootlp/adaptive</text>
<text x="445.2" y="187.6" font-size="11" font-family="Arial, Helvetica, sans-serif" fill="#374151" text-anchor="middle">0.4000</text>
<rect x="493.2" y="195.6" width="67.8" height="289.0" rx="4" fill="#2563eb"><title>pdhg_lp/adaptive | feature_coverage=0.4000 | origin=baseline</title></rect>
<text x="527.1" y="578.0" font-size="11" font-family="Arial, Helvetica, sans-serif" fill="#111827" text-anchor="middle" transform="rotate(-28 527.1 578.0)">pdhg_lp/adaptive</text>
<text x="527.1" y="187.6" font-size="11" font-family="Arial, Helvetica, sans-serif" fill="#374151" text-anchor="middle">0.4000</text>
<rect x="575.0" y="484.6" width="67.8" height="1.0" rx="4" fill="#2563eb"><title>admm_qp/vanilla | feature_coverage=0.0000 | origin=baseline</title></rect>
<text x="608.9" y="578.0" font-size="11" font-family="Arial, Helvetica, sans-serif" fill="#111827" text-anchor="middle" transform="rotate(-28 608.9 578.0)">admm_qp/vanilla</text>
<text x="608.9" y="476.6" font-size="11" font-family="Arial, Helvetica, sans-serif" fill="#374151" text-anchor="middle">0.0000</text>
<rect x="656.8" y="484.6" width="67.8" height="1.0" rx="4" fill="#2563eb"><title>fista_lasso/vanilla | feature_coverage=0.0000 | origin=baseline</title></rect>
<text x="690.7" y="578.0" font-size="11" font-family="Arial, Helvetica, sans-serif" fill="#111827" text-anchor="middle" transform="rotate(-28 690.7 578.0)">fista_lasso/vanilla</text>
<text x="690.7" y="476.6" font-size="11" font-family="Arial, Helvetica, sans-serif" fill="#374151" text-anchor="middle">0.0000</text>
<rect x="738.7" y="484.6" width="67.8" height="1.0" rx="4" fill="#2563eb"><title>miplib_rootlp/vanilla | feature_coverage=0.0000 | origin=baseline</title></rect>
<text x="772.6" y="578.0" font-size="11" font-family="Arial, Helvetica, sans-serif" fill="#111827" text-anchor="middle" transform="rotate(-28 772.6 578.0)">miplib_rootlp/vanilla</text>
<text x="772.6" y="476.6" font-size="11" font-family="Arial, Helvetica, sans-serif" fill="#374151" text-anchor="middle">0.0000</text>
<rect x="820.5" y="484.6" width="67.8" height="1.0" rx="4" fill="#2563eb"><title>miplib_rootlp/conservative | feature_coverage=0.0000 | origin=baseline</title></rect>
<text x="854.4" y="578.0" font-size="11" font-family="Arial, Helvetica, sans-serif" fill="#111827" text-anchor="middle" transform="rotate(-28 854.4 578.0)">miplib_rootlp/conservative</text>
<text x="854.4" y="476.6" font-size="11" font-family="Arial, Helvetica, sans-serif" fill="#374151" text-anchor="middle">0.0000</text>
<rect x="902.3" y="484.6" width="67.8" height="1.0" rx="4" fill="#2563eb"><title>pdhg_lp/vanilla | feature_coverage=0.0000 | origin=baseline</title></rect>
<text x="936.2" y="578.0" font-size="11" font-family="Arial, Helvetica, sans-serif" fill="#111827" text-anchor="middle" transform="rotate(-28 936.2 578.0)">pdhg_lp/vanilla</text>
<text x="936.2" y="476.6" font-size="11" font-family="Arial, Helvetica, sans-serif" fill="#374151" text-anchor="middle">0.0000</text>
<rect x="984.2" y="484.6" width="67.8" height="1.0" rx="4" fill="#2563eb"><title>pdhg_lp/conservative | feature_coverage=0.0000 | origin=baseline</title></rect>
<text x="1018.1" y="578.0" font-size="11" font-family="Arial, Helvetica, sans-serif" fill="#111827" text-anchor="middle" transform="rotate(-28 1018.1 578.0)">pdhg_lp/conservative</text>
<text x="1018.1" y="476.6" font-size="11" font-family="Arial, Helvetica, sans-serif" fill="#374151" text-anchor="middle">0.0000</text>
<rect x="84" y="608" width="12" height="12" rx="2" fill="#2563eb" />
<text x="102.0" y="618.0" font-size="12" font-family="Arial, Helvetica, sans-serif" fill="#374151" text-anchor="start">baseline</text>
<text x="84" y="62" font-size="13" font-family="Arial, Helvetica, sans-serif" fill="#6b7280">metric=feature_coverage items=12</text>
<text x="22.0" y="90.0" font-size="12" font-family="Arial, Helvetica, sans-serif" fill="#374151" text-anchor="start" transform="rotate(-90 22.0 90.0)">feature_coverage</text>
</svg>