<?xml version="1.0" encoding="UTF-8"?>
<svg xmlns="http://www.w3.org/2000/svg" width="1080" height="640" viewBox="0 0 1080 640">
<rect width="100%" height="100%" fill="#ffffff" />
<text x="36" y="40" font-size="24" font-family="Arial, Helvetica, sans-serif" fill="#111827">search_archive_alm_alm_eq_qp_train</text>
<text x="36" y="62" font-size="12" font-family="Arial, Helvetica, sans-serif" fill="#6b7280">chart=line generated_from_csv=true</text>
<line x1="84.0" y1="528.0" x2="1052.0" y2="528.0" stroke="#e5e7eb" stroke-width="1.0" />
<text x="74.0" y="532.0" font-size="11" font-family="Arial, Helvetica, sans-serif" fill="#6b7280" text-anchor="end">-1.223</text>
<line x1="84.0" y1="438.4" x2="1052.0" y2="438.4" stroke="#e5e7eb" stroke-width="1.0" />
<text x="74.0" y="442.4" font-size="11" font-family="Arial, Helvetica, sans-serif" fill="#6b7280" text-anchor="end">-0.9786</text>
<line x1="84.0" y1="348.8" x2="1052.0" y2="348.8" stroke="#e5e7eb" stroke-width="1.0" />
<text x="74.0" y="352.8" font-size="11" font-family="Arial, Helvetica, sans-serif" fill="#6b7280" text-anchor="end">-0.7340</text>
<line x1="84.0" y1="259.2" x2="1052.0" y2="259.2" stroke="#e5e7eb" stroke-width="1.0" />
<text x="74.0" y="263.2" font-size="11" font-family="Arial, Helvetica, sans-serif" fill="#6b7280" text-anchor="end">-0.4893</text>
<line x1="84.0" y1="169.6" x2="1052.0" y2="169.6" stroke="#e5e7eb" stroke-width="1.0" />
<text x="74.0" y="173.6" font-size="11" font-family="Arial, Helvetica, sans-serif" fill="#6b7280" text-anchor="end">-0.2447</text>
<line x1="84.0" y1="80.0" x2="1052.0" y2="80.0" stroke="#e5e7eb" stroke-width="1.0" />
<text x="74.0" y="84.0" font-size="11" font-family="Arial, Helvetica, sans-serif" fill="#6b7280" text-anchor="end">0.0000</text>
<line x1="84.0" y1="80.0" x2="84.0" y2="528.0" stroke="#f3f4f6" stroke-width="1.0" />
<text x="84.0" y="586.0" font-size="11" font-family="Arial, Helvetica, sans-serif" fill="#6b7280" text-anchor="middle">1</text>
<line x1="299.1" y1="80.0" x2="299.1" y2="528.0" stroke="#f3f4f6" stroke-width="1.0" />
<text x="299.1" y="586.0" font-size="11" font-family="Arial, Helvetica, sans-serif" fill="#6b7280" text-anchor="middle">3</text>
<line x1="514.2" y1="80.0" x2="514.2" y2="528.0" stroke="#f3f4f6" stroke-width="1.0" />
<text x="514.2" y="586.0" font-size="11" font-family="Arial, Helvetica, sans-serif" fill="#6b7280" text-anchor="middle">5</text>
<line x1="729.3" y1="80.0" x2="729.3" y2="528.0" stroke="#f3f4f6" stroke-width="1.0" />
<text x="729.3" y="586.0" font-size="11" font-family="Arial, Helvetica, sans-serif" fill="#6b7280" text-anchor="middle">7</text>
<line x1="944.4" y1="80.0" x2="944.4" y2="528.0" stroke="#f3f4f6" stroke-width="1.0" />
<text x="944.4" y="586.0" font-size="11" font-family="Arial, Helvetica, sans-serif" fill="#6b7280" text-anchor="middle">9</text>
<polyline fill="none" stroke="#2563eb" stroke-width="2.6" points="84.0,339.0" />
<circle cx="84.0" cy="339.0" r="4" fill="#2563eb" />
<polyline fill="none" stroke="#f97316" stroke-width="2.6" points="191.6,488.1 299.1,434.7" />
<circle cx="191.6" cy="488.1" r="4" fill="#f97316" />
<circle cx="299.1" cy="434.7" r="4" fill="#f97316" />
<polyline fill="none" stroke="#16a34a" stroke-width="2.6" points="406.7,155.9 836.9,155.9" />
<circle cx="406.7" cy="155.9" r="4" fill="#16a34a" />
<circle cx="836.9" cy="155.9" r="4" fill="#16a34a" />
<polyline fill="none" stroke="#dc2626" stroke-width="2.6" points="514.2,339.1" />
<circle cx="514.2" cy="339.1" r="4" fill="#dc2626" />
<polyline fill="none" stroke="#7c3aed" stroke-width="2.6" points="621.8,486.7 729.3,432.7 944.4,155.9 1052.0,155.9" />
<circle cx="621.8" cy="486.7" r="4" fill="#7c3aed" />
<circle cx="729.3" cy="432.7" r="4" fill="#7c3aed" />
<circle cx="944.4" cy="155.9" r="4" fill="#7c3aed" />
<circle cx="1052.0" cy="155.9" r="4" fill="#7c3aed" />
<polyline fill="none" stroke="#0891b2" stroke-width="3.2" stroke-dasharray="6 5" points="84.0,339.0 191.6,339.0 299.1,339.0 406.7,155.9 514.2,155.9 621.8,155.9 729.3,155.9 836.9,155.9 944.4,155.9 1052.0,155.9" />
<rect x="84" y="608" width="12" height="12" rx="2" fill="#2563eb" />
<text x="102.0" y="618.0" font-size="12" font-family="Arial, Helvetica, sans-serif" fill="#374151" text-anchor="start">search_seed</text>
<rect x="232" y="608" width="12" height="12" rx="2" fill="#f97316" />
<text x="250.0" y="618.0" font-size="12" font-family="Arial, Helvetica, sans-serif" fill="#374151" text-anchor="start">mutation</text>
<rect x="380" y="608" width="12" height="12" rx="2" fill="#16a34a" />
<text x="398.0" y="618.0" font-size="12" font-family="Arial, Helvetica, sans-serif" fill="#374151" text-anchor="start">llm_generated</text>
<rect x="528" y="608" width="12" height="12" rx="2" fill="#dc2626" />
<text x="546.0" y="618.0" font-size="12" font-family="Arial, Helvetica, sans-serif" fill="#374151" text-anchor="start">reflection</text>
<rect x="676" y="608" width="12" height="12" rx="2" fill="#7c3aed" />
<text x="694.0" y="618.0" font-size="12" font-family="Arial, Helvetica, sans-serif" fill="#374151" text-anchor="start">funsearch_mutation</text>
<rect x="824" y="608" width="12" height="12" rx="2" fill="#0891b2" />
<text x="842.0" y="618.0" font-size="12" font-family="Arial, Helvetica, sans-serif" fill="#374151" text-anchor="start">best-so-far</text>
<text x="84" y="62" font-size="13" font-family="Arial, Helvetica, sans-serif" fill="#6b7280">metric=score items=10</text>
<text x="22.0" y="90.0" font-size="12" font-family="Arial, Helvetica, sans-serif" fill="#374151" text-anchor="start" transform="rotate(-90 22.0 90.0)">score</text>
</svg>