<?xml version="1.0" encoding="UTF-8"?>
<svg xmlns="http://www.w3.org/2000/svg" width="1080" height="640" viewBox="0 0 1080 640">
<rect width="100%" height="100%" fill="#ffffff" />
<text x="36" y="40" font-size="24" font-family="Arial, Helvetica, sans-serif" fill="#111827">Search Median Gap</text>
<text x="36" y="62" font-size="12" font-family="Arial, Helvetica, sans-serif" fill="#6b7280">chart=bar generated_from_csv=true</text>
<line x1="84.0" y1="528.0" x2="1052.0" y2="528.0" stroke="#e5e7eb" stroke-width="1.0" />
<text x="74.0" y="532.0" font-size="11" font-family="Arial, Helvetica, sans-serif" fill="#6b7280" text-anchor="end">0.0000</text>
<line x1="84.0" y1="438.4" x2="1052.0" y2="438.4" stroke="#e5e7eb" stroke-width="1.0" />
<text x="74.0" y="442.4" font-size="11" font-family="Arial, Helvetica, sans-serif" fill="#6b7280" text-anchor="end">0.0017</text>
<line x1="84.0" y1="348.8" x2="1052.0" y2="348.8" stroke="#e5e7eb" stroke-width="1.0" />
<text x="74.0" y="352.8" font-size="11" font-family="Arial, Helvetica, sans-serif" fill="#6b7280" text-anchor="end">0.0034</text>
<line x1="84.0" y1="259.2" x2="1052.0" y2="259.2" stroke="#e5e7eb" stroke-width="1.0" />
<text x="74.0" y="263.2" font-size="11" font-family="Arial, Helvetica, sans-serif" fill="#6b7280" text-anchor="end">0.0052</text>
<line x1="84.0" y1="169.6" x2="1052.0" y2="169.6" stroke="#e5e7eb" stroke-width="1.0" />
<text x="74.0" y="173.6" font-size="11" font-family="Arial, Helvetica, sans-serif" fill="#6b7280" text-anchor="end">0.0069</text>
<line x1="84.0" y1="80.0" x2="1052.0" y2="80.0" stroke="#e5e7eb" stroke-width="1.0" />
<text x="74.0" y="84.0" font-size="11" font-family="Arial, Helvetica, sans-serif" fill="#6b7280" text-anchor="end">0.0086</text>
<line x1="84.0" y1="528.0" x2="1052.0" y2="528.0" stroke="#111827" stroke-width="1.2" />
<rect x="85.0" y="110.9" width="84.0" height="417.1" rx="4" fill="#2563eb"><title>ALM/search_variant_2 | median_gap=0.0080 | origin=mutation</title></rect>
<text x="127.0" y="578.0" font-size="11" font-family="Arial, Helvetica, sans-serif" fill="#111827" text-anchor="middle" transform="rotate(-28 127.0 578.0)">ALM/search_variant_2</text>
<text x="127.0" y="102.9" font-size="11" font-family="Arial, Helvetica, sans-serif" fill="#374151" text-anchor="middle">0.0080</text>
<rect x="183.0" y="196.4" width="84.0" height="331.6" rx="4" fill="#f97316"><title>ALM/search_variant_2_g2 | median_gap=0.0064 | origin=funsearch_mutation</title></rect>
<text x="225.0" y="578.0" font-size="11" font-family="Arial, Helvetica, sans-serif" fill="#111827" text-anchor="middle" transform="rotate(-28 225.0 578.0)">ALM/search_variant_2_g2</text>
<text x="225.0" y="188.4" font-size="11" font-family="Arial, Helvetica, sans-serif" fill="#374151" text-anchor="middle">0.0064</text>
<rect x="281.0" y="210.0" width="84.0" height="318.0" rx="4" fill="#2563eb"><title>ALM/search_variant_1 | median_gap=0.0061 | origin=mutation</title></rect>
<text x="323.0" y="578.0" font-size="11" font-family="Arial, Helvetica, sans-serif" fill="#111827" text-anchor="middle" transform="rotate(-28 323.0 578.0)">ALM/search_variant_1</text>
<text x="323.0" y="202.0" font-size="11" font-family="Arial, Helvetica, sans-serif" fill="#374151" text-anchor="middle">0.0061</text>
<rect x="379.0" y="286.0" width="84.0" height="242.0" rx="4" fill="#f97316"><title>ALM/search_variant_1_g2 | median_gap=0.0047 | origin=funsearch_mutation</title></rect>
<text x="421.0" y="578.0" font-size="11" font-family="Arial, Helvetica, sans-serif" fill="#111827" text-anchor="middle" transform="rotate(-28 421.0 578.0)">ALM/search_variant_1_g2</text>
<text x="421.0" y="278.0" font-size="11" font-family="Arial, Helvetica, sans-serif" fill="#374151" text-anchor="middle">0.0047</text>
<rect x="477.0" y="336.7" width="84.0" height="191.3" rx="4" fill="#7c3aed"><title>ALM/search_seed | median_gap=0.0037 | origin=search_seed</title></rect>
<text x="519.0" y="578.0" font-size="11" font-family="Arial, Helvetica, sans-serif" fill="#111827" text-anchor="middle" transform="rotate(-28 519.0 578.0)">ALM/search_seed</text>
<text x="519.0" y="328.7" font-size="11" font-family="Arial, Helvetica, sans-serif" fill="#374151" text-anchor="middle">0.0037</text>
<rect x="575.0" y="367.8" width="84.0" height="160.2" rx="4" fill="#0891b2"><title>ALM/llm_seed | median_gap=0.0031 | origin=llm_generated</title></rect>
<text x="617.0" y="578.0" font-size="11" font-family="Arial, Helvetica, sans-serif" fill="#111827" text-anchor="middle" transform="rotate(-28 617.0 578.0)">ALM/llm_seed</text>
<text x="617.0" y="359.8" font-size="11" font-family="Arial, Helvetica, sans-serif" fill="#374151" text-anchor="middle">0.0031</text>
<rect x="673.0" y="367.8" width="84.0" height="160.2" rx="4" fill="#0891b2"><title>ALM/llm_seed_reflect | median_gap=0.0031 | origin=llm_generated</title></rect>
<text x="715.0" y="578.0" font-size="11" font-family="Arial, Helvetica, sans-serif" fill="#111827" text-anchor="middle" transform="rotate(-28 715.0 578.0)">ALM/llm_seed_reflect</text>
<text x="715.0" y="359.8" font-size="11" font-family="Arial, Helvetica, sans-serif" fill="#374151" text-anchor="middle">0.0031</text>
<rect x="771.0" y="367.8" width="84.0" height="160.2" rx="4" fill="#f97316"><title>ALM/llm_seed_reflect_top1 | median_gap=0.0031 | origin=funsearch_mutation</title></rect>
<text x="813.0" y="578.0" font-size="11" font-family="Arial, Helvetica, sans-serif" fill="#111827" text-anchor="middle" transform="rotate(-28 813.0 578.0)">ALM/llm_seed_reflect_top1</text>
<text x="813.0" y="359.8" font-size="11" font-family="Arial, Helvetica, sans-serif" fill="#374151" text-anchor="middle">0.0031</text>
<rect x="869.0" y="367.8" width="84.0" height="160.2" rx="4" fill="#f97316"><title>ALM/llm_seed_top2 | median_gap=0.0031 | origin=funsearch_mutation</title></rect>
<text x="911.0" y="578.0" font-size="11" font-family="Arial, Helvetica, sans-serif" fill="#111827" text-anchor="middle" transform="rotate(-28 911.0 578.0)">ALM/llm_seed_top2</text>
<text x="911.0" y="359.8" font-size="11" font-family="Arial, Helvetica, sans-serif" fill="#374151" text-anchor="middle">0.0031</text>
<rect x="967.0" y="368.8" width="84.0" height="159.2" rx="4" fill="#f97316"><title>ALM/search_seed_reflect | median_gap=0.0031 | origin=reflection</title></rect>
<text x="1009.0" y="578.0" font-size="11" font-family="Arial, Helvetica, sans-serif" fill="#111827" text-anchor="middle" transform="rotate(-28 1009.0 578.0)">ALM/search_seed_reflect</text>
<text x="1009.0" y="360.8" font-size="11" font-family="Arial, Helvetica, sans-serif" fill="#374151" text-anchor="middle">0.0031</text>
<rect x="84" y="608" width="12" height="12" rx="2" fill="#2563eb" />
<text x="102.0" y="618.0" font-size="12" font-family="Arial, Helvetica, sans-serif" fill="#374151" text-anchor="start">mutation</text>
<rect x="232" y="608" width="12" height="12" rx="2" fill="#f97316" />
<text x="250.0" y="618.0" font-size="12" font-family="Arial, Helvetica, sans-serif" fill="#374151" text-anchor="start">funsearch_mutation</text>
<rect x="380" y="608" width="12" height="12" rx="2" fill="#7c3aed" />
<text x="398.0" y="618.0" font-size="12" font-family="Arial, Helvetica, sans-serif" fill="#374151" text-anchor="start">search_seed</text>
<rect x="528" y="608" width="12" height="12" rx="2" fill="#0891b2" />
<text x="546.0" y="618.0" font-size="12" font-family="Arial, Helvetica, sans-serif" fill="#374151" text-anchor="start">llm_generated</text>
<rect x="676" y="608" width="12" height="12" rx="2" fill="#f97316" />
<text x="694.0" y="618.0" font-size="12" font-family="Arial, Helvetica, sans-serif" fill="#374151" text-anchor="start">reflection</text>
<text x="84" y="62" font-size="13" font-family="Arial, Helvetica, sans-serif" fill="#6b7280">metric=median_gap items=10</text>
<text x="22.0" y="90.0" font-size="12" font-family="Arial, Helvetica, sans-serif" fill="#374151" text-anchor="start" transform="rotate(-90 22.0 90.0)">median_gap</text>
</svg>